<svg xmlns="http://www.w3.org/2000/svg" width="53.354" height="61.097" viewBox="0 0 53.354 61.097">
  <g id="Grupo_1112731" data-name="Grupo 1112731" transform="translate(-32.481 0)">
    <g id="Grupo_1112729" data-name="Grupo 1112729" transform="translate(33.375 0.894)">
      <path id="Trazado_900932" data-name="Trazado 900932" d="M384.278,437.869l-.831-4.007a5.74,5.74,0,0,0-2.915-3.9l-6.083,1.619v5.994l2.847,1.341h6.128A.873.873,0,0,0,384.278,437.869Z" transform="translate(-334.582 -379.61)" fill="#c86d36"/>
      <path id="Trazado_900933" data-name="Trazado 900933" d="M269,371.417l-4.138-2.762h-1.434l-5.941,2.783v12.451l5.941,1.028h10.848v-4.569a.978.978,0,0,1,.215-.613l3.022-3.772Z" transform="translate(-231.559 -325.607)" fill="#dc8758"/>
      <path id="Trazado_900934" data-name="Trazado 900934" d="M58.661,429.965a5.74,5.74,0,0,0-2.915,3.9l-.831,4.007a.873.873,0,0,0,.855,1.05H61.9l3.806-.991v-7.639Z" transform="translate(-53.118 -379.61)" fill="#c86d36"/>
      <path id="Trazado_900935" data-name="Trazado 900935" d="M100.568,370.065,95,372.659,86.484,377.2l3.022,3.772a.978.978,0,0,1,.215.613v4.569h10.848l3.837-.714V372.32Z" transform="translate(-80.941 -326.849)" fill="#dc8758"/>
      <path id="Trazado_900936" data-name="Trazado 900936" d="M216.883,368.655v16.261H204.644V368.823l.361-.168Z" transform="translate(-185.018 -325.607)" fill="#fccd7f"/>
      <path id="Trazado_900937" data-name="Trazado 900937" d="M344.111,299.645l1.374.882a4.93,4.93,0,0,0,3.56.7l3.318-.615a.314.314,0,0,0,.17-.525l-1.238-1.3-.077-.205a4.92,4.92,0,0,0-6.728-2.7l-.614.294-2.4,1.119Z" transform="translate(-305.535 -261.078)" fill="#fed402"/>
      <path id="Trazado_900938" data-name="Trazado 900938" d="M85.465,299.645l-1.374.882a4.93,4.93,0,0,1-3.56.7l-3.318-.615a.314.314,0,0,1-.17-.525l1.238-1.3.077-.205a4.92,4.92,0,0,1,6.728-2.7l.614.294,2.46,1.391Z" transform="translate(-72.549 -261.078)" fill="#fed402"/>
      <path id="Trazado_900939" data-name="Trazado 900939" d="M253.378,159.792h1.392a2.528,2.528,0,0,0,2.528-2.528v-8.1H239.15v10.624h14.228Z" transform="translate(-215.411 -132.282)" fill="#918291"/>
      <g id="Grupo_1112725" data-name="Grupo 1112725" transform="translate(13.52 18.217)">
        <path id="Trazado_900940" data-name="Trazado 900940" d="M177.848,176.878v-6.25a32,32,0,0,0-.965-7.8l-1.536-2.5H153.411V181.9s11.538,3.916,11.232,4.127,7.851,0,7.851,0Z" transform="translate(-153.411 -160.33)" fill="#f6a96c"/>
      </g>
      <path id="Trazado_900941" data-name="Trazado 900941" d="M168.072,21.4l-2.349-6.967V12.575a3.887,3.887,0,0,0-2.066-3.435L160.946,7.7a1.788,1.788,0,0,0-1.438-.1l-2.5.891a3.629,3.629,0,0,1-2.436,0l-2.5-.891a1.788,1.788,0,0,0-1.438.1l-2.71,1.437a3.888,3.888,0,0,0-2.066,3.435v1.862L143.509,21.4,142.3,24.845l27.732.466Z" transform="translate(-130.104 -7.495)" fill="#dc8758"/>
      <path id="Trazado_900942" data-name="Trazado 900942" d="M149.593,23.616l2.349-6.967V14.787a3.887,3.887,0,0,1,2.066-3.435l2.71-1.437a1.788,1.788,0,0,1,1.438-.1l2.5.891a3.629,3.629,0,0,0,2.436,0l1.727-.616a3.878,3.878,0,0,0-1.163-.945L160.946,7.7a1.788,1.788,0,0,0-1.438-.1l-2.5.891a3.629,3.629,0,0,1-2.436,0l-2.5-.891a1.788,1.788,0,0,0-1.438.1l-2.71,1.437a3.887,3.887,0,0,0-2.066,3.435v1.862L143.509,21.4,142.3,24.845l6.82.115Z" transform="translate(-130.104 -7.495)" fill="#d77f4a"/>
      <g id="Grupo_1112728" data-name="Grupo 1112728" transform="translate(0 4.34)">
        <path id="Trazado_900943" data-name="Trazado 900943" d="M177.482,165.806q-.229-1.5-.6-2.98l-1.536-2.5H159.082v4.619h-5.671V181.9s3.549,1.2,6.658,2.313v-10.79a1.848,1.848,0,0,1,.79-1.516,15.754,15.754,0,0,0,4.6-5.014,2.174,2.174,0,0,1,1.88-1.088Z" transform="translate(-139.891 -146.453)" fill="#ea9b58"/>
        <path id="Trazado_900944" data-name="Trazado 900944" d="M117.225,152.994a13.333,13.333,0,0,1-5.148,7.127l-.8.56a.606.606,0,0,1-.949-.434l-.19-1.831-2.786,2.218a10.066,10.066,0,0,1-6.269,2.19h-1.5l.27-.68a9.8,9.8,0,0,0,.69-3.614,6.02,6.02,0,0,1,2.476-4.866l.921-.671,4.887-3.293,8.855-.534Z" transform="translate(-92.473 -136.621)" fill="#918291"/>
        <path id="Trazado_900945" data-name="Trazado 900945" d="M106.289,167.951l-2.356,1.588-.921.671a6.02,6.02,0,0,0-2.476,4.866,9.805,9.805,0,0,1-.69,3.614l-.27.68h1.5a10.06,10.06,0,0,0,3.03-.469,9.8,9.8,0,0,0,.486-3.04,6.015,6.015,0,0,1,.427-2.226,1.787,1.787,0,0,1,1.663-1.116h9.207a13.327,13.327,0,0,0,1.3-2.98l.187-1.588H106.289Z" transform="translate(-92.473 -153.166)" fill="#7a6d79"/>
        <path id="Trazado_900946" data-name="Trazado 900946" d="M83.895,124.716H47.635a7.653,7.653,0,0,1-7.653-7.653,265.037,265.037,0,0,0,51.566,0A7.653,7.653,0,0,1,83.895,124.716Z" transform="translate(-39.982 -108.344)" fill="#d77f4a"/>
        <path id="Trazado_900947" data-name="Trazado 900947" d="M56.833,122.22a7.653,7.653,0,0,1-6.916-4.374q-4.97-.3-9.934-.783a7.653,7.653,0,0,0,7.653,7.653H83.9a7.633,7.633,0,0,0,5.654-2.5Z" transform="translate(-39.983 -108.344)" fill="#c86d36"/>
        <path id="Trazado_900948" data-name="Trazado 900948" d="M233.8,44.267l.372.843a.6.6,0,0,0,.614.355l.916-.1a.6.6,0,0,1,.549.952l-.544.744a.6.6,0,0,0,0,.709l.544.744a.6.6,0,0,1-.549.952l-.916-.1a.6.6,0,0,0-.614.355l-.372.843a.6.6,0,0,1-1.1,0l-.372-.843a.6.6,0,0,0-.614-.355l-.916.1a.6.6,0,0,1-.549-.952l.544-.744a.6.6,0,0,0,0-.709l-.544-.744a.6.6,0,0,1,.549-.952l.916.1a.6.6,0,0,0,.614-.355l.372-.843a.6.6,0,0,1,1.1,0Z" transform="translate(-207.468 -43.908)" fill="#fedf30"/>
        <path id="Trazado_900949" data-name="Trazado 900949" d="M232.742,248.645l.208,2.057,1.222,5.529-6.943.249,1.133-5.778.208-2.057a.876.876,0,0,1,.871-.788h2.43a.876.876,0,0,1,.871.788Z" transform="translate(-204.911 -223.549)" fill="#ea9b58"/>
        <g id="XMLID_1102_" transform="translate(5.543 26.969)">
          <g id="Grupo_1112726" data-name="Grupo 1112726">
            <path id="Trazado_900950" data-name="Trazado 900950" d="M204.644,368.823v12.485q1.887,1.515,4.052,3.048a3.48,3.48,0,0,0,1.267.56h1.514a3.465,3.465,0,0,0,1.136-.475,47.989,47.989,0,0,0,4.269-3.116v-12.67H205.005Z" transform="translate(-190.56 -356.917)" fill="#fdb441"/>
            <path id="Trazado_900951" data-name="Trazado 900951" d="M100.568,370.065,95,372.659,86.484,377.2l3.022,3.772a.978.978,0,0,1,.215.613v4.569h.069l.546-2.631a5.738,5.738,0,0,1,2.915-3.9l1.275-.681a1.937,1.937,0,0,1,2.244.3q1.747,1.65,3.8,3.3v-6.827l1.194-.638,2.642-1.23V372.32Z" transform="translate(-86.484 -358.159)" fill="#d77f4a"/>
            <path id="Trazado_900952" data-name="Trazado 900952" d="M312.9,371.417l-4.138-2.762h-1.434v12.67a60.3,60.3,0,0,0,6.412-6.1,12.417,12.417,0,0,0,1.735-2.435Z" transform="translate(-281.002 -356.917)" fill="#d77f4a"/>
            <path id="Trazado_900953" data-name="Trazado 900953" d="M173.447,273.631a1.162,1.162,0,0,1,.619,1.036l-.014,5.383a9.565,9.565,0,0,1-2.484,6.426,51.974,51.974,0,0,1-10.1,8.721.516.516,0,0,1-.578-.013,61.472,61.472,0,0,1-9.979-8.569,9.6,9.6,0,0,1-2.5-6.47v-5.534a1.17,1.17,0,0,1,.6-1.02,27.006,27.006,0,0,1,11.966-3.411,2.073,2.073,0,0,1,.588.051C165.79,271.191,169.747,271.7,173.447,273.631Z" transform="translate(-141.032 -270.176)" fill="#fee45a"/>
          </g>
        </g>
        <path id="Trazado_900954" data-name="Trazado 900954" d="M168.715,271.831h0c-2.294-.629-4.677-1.037-7.154-1.6a2.072,2.072,0,0,0-.588-.051,27.006,27.006,0,0,0-11.966,3.411,1.17,1.17,0,0,0-.6,1.02v5.534a9.6,9.6,0,0,0,2.5,6.47,61.475,61.475,0,0,0,9.979,8.569.516.516,0,0,0,.578.013q1.329-.858,2.61-1.825a52.329,52.329,0,0,1-5.428-5.105,9.6,9.6,0,0,1-2.5-6.47v-1.747a6.537,6.537,0,0,1,4.5-6.212A40.407,40.407,0,0,1,168.715,271.831Z" transform="translate(-135.49 -243.206)" fill="#fedf30"/>
        <g id="Grupo_1112727" data-name="Grupo 1112727" transform="translate(12.924 32.205)">
          <path id="Trazado_900955" data-name="Trazado 900955" d="M155.478,339.183l-.07-.018a13.794,13.794,0,0,1-5.055-2.442l-1.378-1.056-.56-.473v2.219c0,.026,0,.052,0,.078l.849.651a15.574,15.574,0,0,0,5.706,2.756l.07.018a.894.894,0,0,0,.437-1.734Z" transform="translate(-148.415 -332.681)" fill="#fed402"/>
          <path id="Trazado_900956" data-name="Trazado 900956" d="M318.02,316.685l.007-2.586-.645.676-1.842,1.9a6.41,6.41,0,0,1-3.009,1.746.894.894,0,1,0,.444,1.732,8.2,8.2,0,0,0,3.848-2.232Z" transform="translate(-292.377 -314.099)" fill="#fed402"/>
        </g>
      </g>
    </g>
    <g id="Grupo_1112730" data-name="Grupo 1112730" transform="translate(32.481 0)">
      <path id="Trazado_900957" data-name="Trazado 900957" d="M229.962,40.809l.417-.57a1.494,1.494,0,0,0-1.367-2.368l-.7.076-.285-.646a1.494,1.494,0,0,0-2.735,0l-.285.646-.7-.076a1.494,1.494,0,0,0-1.367,2.368l.417.57-.417.57a1.494,1.494,0,0,0,1.367,2.368l.7-.076.285.646a1.494,1.494,0,0,0,2.735,0l.285-.646.7.076a1.494,1.494,0,0,0,1.367-2.368Zm-1.57.883.151.206-.254-.028a1.488,1.488,0,0,0-1.529.883l-.1.234-.1-.234a1.492,1.492,0,0,0-1.529-.883l-.254.028.151-.206a1.489,1.489,0,0,0,0-1.766l-.151-.206.254.028a1.49,1.49,0,0,0,1.529-.883l.1-.234.1.234a1.49,1.49,0,0,0,1.529.883l.254-.028-.151.206A1.489,1.489,0,0,0,228.392,41.692Z" transform="translate(-199.98 -32.069)"/>
      <path id="Trazado_900958" data-name="Trazado 900958" d="M294.458,226.664h2.967a.894.894,0,0,0,0-1.788h-2.967a.894.894,0,1,0,0,1.788Z" transform="translate(-262.445 -198.073)"/>
      <path id="Trazado_900959" data-name="Trazado 900959" d="M398.75,415.694a6.614,6.614,0,0,0-3.37-4.5l-.013-.007h0L392.5,409.65a.894.894,0,0,0-.842,1.577l1.934,1.033-2.349,2.932a1.88,1.88,0,0,0-.411,1.171v4.569a.894.894,0,0,0,1.788,0v-4.569a.087.087,0,0,1,.019-.054l2.522-3.148A4.828,4.828,0,0,1,397,416.057l1.049,5.058a.894.894,0,0,0,1.751-.363Z" transform="translate(-348.117 -360.73)"/>
      <path id="Trazado_900960" data-name="Trazado 900960" d="M73.493,47.121l-1.55-.828a10.534,10.534,0,0,0,.887-4.214l0-.991.009.006a5.808,5.808,0,0,0,4.206.825l3.318-.615a1.208,1.208,0,0,0,.655-2.02l-1.113-1.171-.013-.036a5.811,5.811,0,0,0-7.668-3.317V29.408c0-.037,0-.074,0-.111h.509a3.422,3.422,0,0,0,3.422-3.422V22.5h1.132a8.557,8.557,0,0,0,8.547-8.547.894.894,0,0,0-.98-.89c-4.254.414-8.556.727-12.839.936L69.887,7.689V5.974A4.771,4.771,0,0,0,67.346,1.75L64.636.312A2.688,2.688,0,0,0,62.479.155l-2.5.891a2.743,2.743,0,0,1-1.836,0l-2.5-.891a2.688,2.688,0,0,0-2.156.157L50.776,1.75a4.771,4.771,0,0,0-2.541,4.224V7.689l-2.125,6.3q-6.345-.313-12.648-.928a.894.894,0,0,0-.981.89A8.557,8.557,0,0,0,41.028,22.5h1.312a6.936,6.936,0,0,0-1.8,4.643,8.872,8.872,0,0,1-.627,3.284l-.27.68a.894.894,0,0,0,.831,1.224h1.5A10.979,10.979,0,0,0,46,31.565v3.19a5.812,5.812,0,0,0-7.653,3.324l-.013.036-1.113,1.171a1.208,1.208,0,0,0,.655,2.02l3.318.615a5.807,5.807,0,0,0,4.205-.825l.005,0v1.082a10.519,10.519,0,0,0,.849,4.145l-7.743,4.135h0l-.013.007a6.615,6.615,0,0,0-3.37,4.5l-1.049,5.058a.894.894,0,1,0,1.751.363l1.049-5.058a4.829,4.829,0,0,1,1.842-2.895l2.522,3.148a.086.086,0,0,1,.019.054V60.2a.894.894,0,1,0,1.788,0V55.634a1.881,1.881,0,0,0-.411-1.171L40.288,51.53,47.1,47.894a10.463,10.463,0,0,0,1.039,1.35l.075.081a.894.894,0,1,0,1.319-1.207l-.073-.078a8.675,8.675,0,0,1-2.229-5.081,15.569,15.569,0,0,0,5.627,2.7l.07.018a.894.894,0,0,0,.437-1.734l-.07-.018a13.794,13.794,0,0,1-5.055-2.442l-1.044-.8V36.638a.275.275,0,0,1,.009-.069.9.9,0,0,0,.106-.153.277.277,0,0,1,.024-.018,26.189,26.189,0,0,1,11.58-3.3,1.22,1.22,0,0,1,.339.03c.9.205,1.8.391,2.663.57a33.7,33.7,0,0,1,9,2.751.271.271,0,0,1,.14.24l0,1.682-1.59,1.639a6.41,6.41,0,0,1-3.009,1.746A.894.894,0,1,0,66.9,43.49a8.2,8.2,0,0,0,3.848-2.232l.3-.309,0,1.126a8.65,8.65,0,0,1-2.25,5.826,50.894,50.894,0,0,1-9.708,8.433,67.978,67.978,0,0,1-6.91-5.56.894.894,0,0,0-1.217,1.31q.56.521,1.15,1.039V60.2a.894.894,0,0,0,1.788,0V54.636c1.337,1.09,2.783,2.185,4.365,3.3a1.4,1.4,0,0,0,1.58.034,46.345,46.345,0,0,0,4.507-3.322V60.2a.894.894,0,1,0,1.788,0V53.094c1.336-1.218,2.658-2.543,3.978-3.988a10.332,10.332,0,0,0,.97-1.244l1.568.837a.894.894,0,0,0,.842-1.577Zm3.319-10.255a4.013,4.013,0,0,1,1.409,1.843l.077.205a.9.9,0,0,0,.189.3l.5.526-2.266.42a4.022,4.022,0,0,1-2.914-.572l-.969-.622.006-2.272a2.105,2.105,0,0,0-.015-.249,4.022,4.022,0,0,1,3.982.419ZM74.368,25.876a1.634,1.634,0,0,1-1.634,1.634H72.17a32.94,32.94,0,0,0-.679-5.009h2.877ZM34.342,14.944a266.446,266.446,0,0,0,29.541,1.117.894.894,0,1,0-.032-1.788c-5.274.095-10.581.027-15.882-.2l2.008-5.955a.9.9,0,0,0,.047-.286V5.974a2.987,2.987,0,0,1,1.591-2.645l2.71-1.437a.9.9,0,0,1,.719-.052l2.5.891a4.535,4.535,0,0,0,3.036,0l2.5-.891a.9.9,0,0,1,.719.052l2.71,1.437A2.987,2.987,0,0,1,68.1,5.974V7.835a.9.9,0,0,0,.047.286l2.01,5.962q-1.256.053-2.509.094a.894.894,0,1,0,.058,1.787c5.4-.174,10.87-.518,16.27-1.021a6.77,6.77,0,0,1-6.687,5.769H41.028a6.77,6.77,0,0,1-6.687-5.769Zm7.436,15.6a10.647,10.647,0,0,0,.554-3.4A5.142,5.142,0,0,1,44.44,23l.686-.5H56.862A12.492,12.492,0,0,1,52.468,28l-.4.28-.139-1.344a.894.894,0,0,0-1.446-.608l-2.786,2.218a9.207,9.207,0,0,1-5.712,2h-.2Zm2.656,9.046a4.021,4.021,0,0,1-2.914.572l-2.266-.42.5-.526a.9.9,0,0,0,.189-.3l.077-.205a4.024,4.024,0,0,1,5.394-2.261c-.006.063-.01.126-.01.189v2.329Zm14.375-8.275c-.331.019-.658.044-.983.073L58,29.633a.894.894,0,1,0-1.779-.18L56.008,31.6a27.4,27.4,0,0,0-8.219,2.539V30.663a10.876,10.876,0,0,0,1.019-.717l1.509-1.2.021.206a1.5,1.5,0,0,0,2.35,1.075l.8-.56A14.286,14.286,0,0,0,58.775,22.5h6.1v2.153a.894.894,0,1,0,1.788,0V22.5H69.66a31.146,31.146,0,0,1,.778,6.908v4.835a40.521,40.521,0,0,0-8.161-2.294l-.008,0-.253-2.494a.894.894,0,1,0-1.779.18l.2,1.927q-.392-.085-.785-.174a3.01,3.01,0,0,0-.838-.072Z" transform="translate(-32.481 0)"/>
    </g>
  </g>
</svg>
