<svg xmlns="http://www.w3.org/2000/svg" width="73.322" height="64.004" viewBox="0 0 73.322 64.004">
  <g id="Grupo_1112774" data-name="Grupo 1112774" transform="translate(-6.476 -38.878)">
    <g id="Grupo_1112764" data-name="Grupo 1112764" transform="translate(7.501 39.879)">
      <g id="Grupo_1112763" data-name="Grupo 1112763" transform="translate(0 6.88)">
        <g id="Grupo_1112760" data-name="Grupo 1112760" transform="translate(0 17.082)">
          <g id="Grupo_1112759" data-name="Grupo 1112759">
            <path id="Trazado_901062" data-name="Trazado 901062" d="M44.206,236.98l-4.062,6.272a3.774,3.774,0,0,1-3.487,1.709l-7.446-.632A12.557,12.557,0,0,1,19,237.344l-8.064-16.452a2.219,2.219,0,0,1,1.851-3.187,29.158,29.158,0,0,0,20.439-10.018,2.219,2.219,0,0,1,3.653.489l8.064,16.452A12.556,12.556,0,0,1,44.206,236.98Z" transform="translate(-10.247 -206.938)" fill="#8ac9fe"/>
            <path id="Trazado_901063" data-name="Trazado 901063" d="M175.2,236.978l-4.062,6.272a3.774,3.774,0,0,1-3.487,1.71l-2.666-.227a3.774,3.774,0,0,0,1.846-1.483l4.061-6.272a12.555,12.555,0,0,0,.736-12.351l-7.991-16.3c.2-.209.39-.422.582-.637a2.219,2.219,0,0,1,3.653.489l8.064,16.452A12.559,12.559,0,0,1,175.2,236.978Z" transform="translate(-141.244 -206.937)" fill="#60b7ff"/>
            <path id="Trazado_901064" data-name="Trazado 901064" d="M16.252,366.743l-4.282-8.737-2.345.041a2.16,2.16,0,0,0-1.9,3.11l1.166,2.379a4.987,4.987,0,0,0,3.838,2.751Z" transform="translate(-7.501 -336.338)" fill="#99e6fc"/>
            <path id="Trazado_901065" data-name="Trazado 901065" d="M223.814,262.355l-4.282-8.737,1.47-1.829a2.16,2.16,0,0,1,3.623.4l1.166,2.379a4.987,4.987,0,0,1-.177,4.718Z" transform="translate(-189.12 -244.665)" fill="#99e6fc"/>
          </g>
          <path id="Trazado_901066" data-name="Trazado 901066" d="M128.03,367.268q-.354.188-.719.353a6.679,6.679,0,0,1-8.709-3.188h0a25.6,25.6,0,0,0,12.244-6h0A6.679,6.679,0,0,1,128.03,367.268Z" transform="translate(-102.665 -336.702)" fill="#fff9df"/>
        </g>
        <g id="Grupo_1112762" data-name="Grupo 1112762" transform="translate(32.16)">
          <g id="Grupo_1112761" data-name="Grupo 1112761">
            <path id="Trazado_901067" data-name="Trazado 901067" d="M277.224,122.842l-7.076,2.4a3.774,3.774,0,0,1-3.8-.821l-5.45-5.112A12.557,12.557,0,0,1,257.22,107.5l3.873-17.908a2.219,2.219,0,0,1,3.428-1.353,29.159,29.159,0,0,0,22.248,4.811,2.219,2.219,0,0,1,2.563,2.648l-3.873,17.908A12.557,12.557,0,0,1,277.224,122.842Z" transform="translate(-253.318 -87.847)" fill="#fe76a8"/>
            <path id="Trazado_901068" data-name="Trazado 901068" d="M349.054,126.571l-3.873,17.908a12.555,12.555,0,0,1-8.235,9.236l-7.076,2.4a3.763,3.763,0,0,1-3.211-.373l5.98-2.03a12.558,12.558,0,0,0,8.235-9.236l3.873-17.908a2.2,2.2,0,0,0-.912-2.291q1.317-.123,2.656-.357A2.218,2.218,0,0,1,349.054,126.571Z" transform="translate(-313.041 -118.719)" fill="#fe5694"/>
            <path id="Trazado_901069" data-name="Trazado 901069" d="M235.614,156.933l2.057-9.51L235.8,146a2.16,2.16,0,0,0-3.42,1.262l-.56,2.589a4.987,4.987,0,0,0,1.306,4.538Z" transform="translate(-231.712 -137.28)" fill="#fe5694"/>
            <path id="Trazado_901070" data-name="Trazado 901070" d="M455.791,207.186l2.057-9.51,2.287-.524a2.16,2.16,0,0,1,2.593,2.562l-.56,2.589A4.987,4.987,0,0,1,459.1,205.9Z" transform="translate(-423.65 -181.426)" fill="#fd3581"/>
          </g>
          <path id="Trazado_901071" data-name="Trazado 901071" d="M311.9,234q-.389-.1-.783-.169a6.679,6.679,0,0,0-7.688,5.188h0a25.6,25.6,0,0,1,13.328,2.882h0A6.679,6.679,0,0,0,311.9,234Z" transform="translate(-293.14 -212.8)" fill="#7171b5"/>
        </g>
      </g>
      <path id="Trazado_901072" data-name="Trazado 901072" d="M98.315,44.822h-.879a2.073,2.073,0,0,1-2.073-2.073V41.87a1.972,1.972,0,0,0-1.843-1.989,1.936,1.936,0,0,0-2.03,1.934v.934a2.073,2.073,0,0,1-2.073,2.073h-.88a1.972,1.972,0,0,0-1.989,1.843,1.936,1.936,0,0,0,1.934,2.03h.934a2.073,2.073,0,0,1,2.073,2.073v.88a1.972,1.972,0,0,0,1.843,1.989,1.936,1.936,0,0,0,2.03-1.934v-.934A2.073,2.073,0,0,1,97.436,48.7h.934a1.937,1.937,0,0,0,1.934-2.03A1.972,1.972,0,0,0,98.315,44.822Z" transform="translate(-75.208 -39.879)" fill="#ffe177"/>
      <path id="Trazado_901073" data-name="Trazado 901073" d="M128.365,44.822h-.879a2.073,2.073,0,0,1-2.073-2.073V41.87a1.972,1.972,0,0,0-1.843-1.989,1.936,1.936,0,0,0-1.942,1.357,7.088,7.088,0,0,1,.146,11.353,1.925,1.925,0,0,0,3.638-.889v-.934a2.073,2.073,0,0,1,2.073-2.073h.934a1.937,1.937,0,0,0,1.934-2.03A1.972,1.972,0,0,0,128.365,44.822Z" transform="translate(-105.258 -39.879)" fill="#ffd15b"/>
    </g>
    <g id="Grupo_1112773" data-name="Grupo 1112773" transform="translate(7.501 39.879)">
      <g id="Grupo_1112771" data-name="Grupo 1112771" transform="translate(0 6.88)">
        <g id="Grupo_1112767" data-name="Grupo 1112767" transform="translate(0 17.082)">
          <g id="Grupo_1112765" data-name="Grupo 1112765">
            <path id="Trazado_901074" data-name="Trazado 901074" d="M41.461,241.219l-1.317,2.033a3.774,3.774,0,0,1-3.487,1.709l-7.446-.632A12.557,12.557,0,0,1,19,237.344l-8.064-16.452a2.219,2.219,0,0,1,1.851-3.187,29.158,29.158,0,0,0,20.439-10.018,2.219,2.219,0,0,1,3.653.489l8.064,16.452a12.557,12.557,0,0,1-.735,12.351" transform="translate(-10.247 -206.939)" fill="none" stroke="#000" stroke-linecap="round" stroke-linejoin="round" stroke-miterlimit="10" stroke-width="2"/>
            <path id="Trazado_901075" data-name="Trazado 901075" d="M16.252,366.743l-4.282-8.737-2.345.041a2.16,2.16,0,0,0-1.9,3.11l1.166,2.379a4.987,4.987,0,0,0,3.838,2.751Z" transform="translate(-7.501 -336.338)" fill="none" stroke="#000" stroke-linecap="round" stroke-linejoin="round" stroke-miterlimit="10" stroke-width="2"/>
            <path id="Trazado_901076" data-name="Trazado 901076" d="M223.814,262.355l-4.282-8.737,1.47-1.829a2.16,2.16,0,0,1,3.623.4l1.166,2.379a4.987,4.987,0,0,1-.177,4.718Z" transform="translate(-189.12 -244.665)" fill="none" stroke="#000" stroke-linecap="round" stroke-linejoin="round" stroke-miterlimit="10" stroke-width="2"/>
          </g>
          <path id="Trazado_901077" data-name="Trazado 901077" d="M128.03,367.268q-.354.188-.719.353a6.679,6.679,0,0,1-8.709-3.188h0a25.6,25.6,0,0,0,12.244-6h0A6.679,6.679,0,0,1,128.03,367.268Z" transform="translate(-102.665 -336.702)" fill="none" stroke="#000" stroke-linecap="round" stroke-linejoin="round" stroke-miterlimit="10" stroke-width="2"/>
          <g id="Grupo_1112766" data-name="Grupo 1112766" transform="translate(9.643 11.829)">
            <path id="Trazado_901078" data-name="Trazado 901078" d="M74.733,334.933s3.4-3.111,6.478-.522" transform="translate(-74.733 -327.074)" fill="none" stroke="#000" stroke-linecap="round" stroke-linejoin="round" stroke-miterlimit="10" stroke-width="2"/>
            <path id="Trazado_901079" data-name="Trazado 901079" d="M160.332,289.407s-4.539.778-4.381,4.8" transform="translate(-144.298 -289.407)" fill="none" stroke="#000" stroke-linecap="round" stroke-linejoin="round" stroke-miterlimit="10" stroke-width="2"/>
          </g>
        </g>
        <g id="Grupo_1112770" data-name="Grupo 1112770" transform="translate(32.16)">
          <g id="Grupo_1112768" data-name="Grupo 1112768">
            <path id="Trazado_901080" data-name="Trazado 901080" d="M283.576,93.453q1.579-.121,3.193-.4a2.219,2.219,0,0,1,2.563,2.648l-3.873,17.908a12.557,12.557,0,0,1-8.234,9.235l-7.076,2.4a3.774,3.774,0,0,1-3.8-.821l-5.45-5.112A12.557,12.557,0,0,1,257.22,107.5l3.873-17.908a2.219,2.219,0,0,1,3.428-1.353,29.333,29.333,0,0,0,13.994,5.182" transform="translate(-253.318 -87.846)" fill="none" stroke="#000" stroke-linecap="round" stroke-linejoin="round" stroke-miterlimit="10" stroke-width="2"/>
            <path id="Trazado_901081" data-name="Trazado 901081" d="M235.614,156.933l2.057-9.51L235.8,146a2.16,2.16,0,0,0-3.42,1.262l-.56,2.589a4.987,4.987,0,0,0,1.306,4.538Z" transform="translate(-231.712 -137.28)" fill="none" stroke="#000" stroke-linecap="round" stroke-linejoin="round" stroke-miterlimit="10" stroke-width="2"/>
            <path id="Trazado_901082" data-name="Trazado 901082" d="M455.791,207.186l2.057-9.51,2.287-.524a2.16,2.16,0,0,1,2.593,2.562l-.56,2.589A4.987,4.987,0,0,1,459.1,205.9Z" transform="translate(-423.65 -181.426)" fill="none" stroke="#000" stroke-linecap="round" stroke-linejoin="round" stroke-miterlimit="10" stroke-width="2"/>
          </g>
          <path id="Trazado_901083" data-name="Trazado 901083" d="M311.9,234q-.389-.1-.783-.169a6.679,6.679,0,0,0-7.688,5.188h0a25.6,25.6,0,0,1,13.328,2.882h0A6.679,6.679,0,0,0,311.9,234Z" transform="translate(-293.14 -212.8)" fill="none" stroke="#000" stroke-linecap="round" stroke-linejoin="round" stroke-miterlimit="10" stroke-width="2"/>
          <g id="Grupo_1112769" data-name="Grupo 1112769" transform="translate(10.79 12.857)">
            <path id="Trazado_901084" data-name="Trazado 901084" d="M306.935,178.535s4.044,2.2,6.414-1.05" transform="translate(-306.935 -177.485)" fill="none" stroke="#000" stroke-linecap="round" stroke-linejoin="round" stroke-miterlimit="10" stroke-width="2"/>
            <path id="Trazado_901085" data-name="Trazado 901085" d="M396.327,189.584s-4.593.336-5.406-3.606" transform="translate(-378.875 -184.76)" fill="none" stroke="#000" stroke-linecap="round" stroke-linejoin="round" stroke-miterlimit="10" stroke-width="2"/>
          </g>
        </g>
      </g>
      <path id="Trazado_901086" data-name="Trazado 901086" d="M98.315,44.822h-.879a2.073,2.073,0,0,1-2.073-2.073V41.87a1.972,1.972,0,0,0-1.843-1.989,1.936,1.936,0,0,0-2.03,1.934v.934a2.073,2.073,0,0,1-2.073,2.073h-.88a1.972,1.972,0,0,0-1.989,1.843,1.936,1.936,0,0,0,1.934,2.03h.934a2.073,2.073,0,0,1,2.073,2.073v.88a1.972,1.972,0,0,0,1.843,1.989,1.936,1.936,0,0,0,2.03-1.934v-.934A2.073,2.073,0,0,1,97.436,48.7h.934a1.937,1.937,0,0,0,1.934-2.03A1.972,1.972,0,0,0,98.315,44.822Z" transform="translate(-75.208 -39.879)" fill="none" stroke="#000" stroke-linecap="round" stroke-linejoin="round" stroke-miterlimit="10" stroke-width="2"/>
      <g id="Grupo_1112772" data-name="Grupo 1112772" transform="translate(7.916 18.051)">
        <line id="Línea_595" data-name="Línea 595" y2="4.28" transform="translate(2.14)" fill="none" stroke="#000" stroke-linecap="round" stroke-linejoin="round" stroke-miterlimit="10" stroke-width="2"/>
        <line id="Línea_596" data-name="Línea 596" x1="4.28" transform="translate(0 2.14)" fill="none" stroke="#000" stroke-linecap="round" stroke-linejoin="round" stroke-miterlimit="10" stroke-width="2"/>
      </g>
      <line id="Línea_597" data-name="Línea 597" transform="translate(21.292 20.191)" fill="none" stroke="#000" stroke-linecap="round" stroke-linejoin="round" stroke-miterlimit="10" stroke-width="2"/>
    </g>
  </g>
</svg>
