<svg xmlns="http://www.w3.org/2000/svg" width="53.39" height="71.118" viewBox="0 0 53.39 71.118">
  <g id="Grupo_1112821" data-name="Grupo 1112821" transform="translate(-63.815)">
    <path id="Trazado_901114" data-name="Trazado 901114" d="M71.312,7.5h51.307V76.536H71.312Z" transform="translate(-6.456 -6.46)" fill="#f9f6f9"/>
    <path id="Trazado_901115" data-name="Trazado 901115" d="M123.947,188.7H102.374V162.813h25.888Z" transform="translate(-33.203 -140.198)" fill="#c8ea73"/>
    <path id="Trazado_901116" data-name="Trazado 901116" d="M102.374,182.229l4.315-4.315,8.613,4.315L111,173.6l8.629-2.157-8.662-4.315,4.348-4.315H102.374Z" transform="translate(-33.203 -140.198)" fill="#efc359"/>
    <path id="Trazado_901117" data-name="Trazado 901117" d="M71.312,7.5H74.09V76.536H71.312Z" transform="translate(-6.456 -6.46)" fill="#dddaec"/>
    <path id="Trazado_901118" data-name="Trazado 901118" d="M102.374,38.564H145.52V51.508H102.374Z" transform="translate(-33.203 -33.207)" fill="#f5db5a"/>
    <path id="Trazado_901119" data-name="Trazado 901119" d="M102.374,380.249H145.52v12.944H102.374Z" transform="translate(-33.203 -327.432)" fill="#df6b57"/>
    <path id="Trazado_901120" data-name="Trazado 901120" d="M306.005,188.7H288.747l4.315-25.888h12.944Z" transform="translate(-193.689 -140.198)" fill="#9dc6fb"/>
    <g id="Grupo_1112820" data-name="Grupo 1112820" transform="translate(63.815)">
      <path id="Trazado_901121" data-name="Trazado 901121" d="M116.163,34.331a1.042,1.042,0,0,0,1.042-1.042V1.042A1.042,1.042,0,0,0,116.163,0H64.857a1.042,1.042,0,0,0-1.042,1.042V70.076a1.042,1.042,0,0,0,1.042,1.042h51.306a1.042,1.042,0,0,0,1.042-1.042V37.828a1.042,1.042,0,1,0-2.084,0V69.034H65.9V2.084h49.223V33.289A1.042,1.042,0,0,0,116.163,34.331Z" transform="translate(-63.815)"/>
      <path id="Trazado_901122" data-name="Trazado 901122" d="M105.647,33.144a1.042,1.042,0,1,0,0-2.084h-9.73A1.042,1.042,0,0,0,94.875,32.1V45.046a1.042,1.042,0,0,0,1.042,1.042h43.146a1.042,1.042,0,0,0,1.042-1.042V32.1a1.042,1.042,0,0,0-1.042-1.042H110.188a1.042,1.042,0,1,0,0,2.084h27.833V44H96.959V33.144Z" transform="translate(-90.561 -26.746)"/>
      <path id="Trazado_901123" data-name="Trazado 901123" d="M95.917,387.778h43.146a1.042,1.042,0,0,0,1.042-1.042V373.792a1.042,1.042,0,0,0-1.042-1.042H120.155a1.042,1.042,0,1,0,0,2.084h17.866v10.861H96.959V374.834h18.657a1.042,1.042,0,1,0,0-2.084h-19.7a1.042,1.042,0,0,0-1.042,1.042v12.944A1.042,1.042,0,0,0,95.917,387.778Z" transform="translate(-90.561 -320.974)"/>
      <path id="Trazado_901124" data-name="Trazado 901124" d="M95.916,183.285h21.573a1.042,1.042,0,0,0,1.028-.87l4.315-25.888a1.042,1.042,0,0,0-1.028-1.213H95.916a1.042,1.042,0,0,0-1.042,1.042v25.888A1.042,1.042,0,0,0,95.916,183.285Zm20.691-2.084H96.958v-5l3.478-3.478,7.941,3.978a1.055,1.055,0,0,0,1.4-1.4l-3.72-7.469L113.427,166a1,1,0,0,0,.212-1.943l-7.361-3.667,3.011-2.988h11.285Zm-10.275-23.8-2.553,2.533a1.042,1.042,0,0,0,.269,1.672l6.136,3.056-5.891,1.473a1.042,1.042,0,0,0-.68,1.475l2.907,5.835-5.822-2.917a1.042,1.042,0,0,0-1.2.195l-2.536,2.536V157.4Z" transform="translate(-90.56 -133.741)"/>
      <path id="Trazado_901125" data-name="Trazado 901125" d="M300.665,156.355a1.042,1.042,0,0,0-1.042-1.042H286.679a1.042,1.042,0,0,0-1.028.87l-4.315,25.888a1.042,1.042,0,0,0,1.028,1.213h17.258a1.042,1.042,0,0,0,1.042-1.042V156.355ZM298.581,181.2H283.594l3.967-23.8h11.02Z" transform="translate(-251.121 -133.74)"/>
    </g>
  </g>
</svg>
