<svg id="Magic_Book" data-name="Magic Book" xmlns="http://www.w3.org/2000/svg" width="72.337" height="72.337" viewBox="0 0 72.337 72.337">
  <path id="Trazado_901126" data-name="Trazado 901126" d="M1,33.33H71.83V79.8H1Z" transform="translate(-0.246 -8.216)" fill="#7e4765"/>
  <path id="Trazado_901127" data-name="Trazado 901127" d="M1,33.33H5.393V79.8H1Z" transform="translate(-0.246 -8.216)" fill="#7e4765"/>
  <path id="Trazado_901128" data-name="Trazado 901128" d="M88.95,33.33h4.393V79.8H88.95Z" transform="translate(-21.925 -8.216)" fill="#7e4765"/>
  <path id="Trazado_901129" data-name="Trazado 901129" d="M88.95,50.36h4.393v20.8H88.95Z" transform="translate(-21.925 -12.413)" fill="#c96f6a"/>
  <path id="Trazado_901130" data-name="Trazado 901130" d="M1,50.36H5.393v20.8H1Z" transform="translate(-0.246 -12.413)" fill="#c96f6a"/>
  <path id="Trazado_901131" data-name="Trazado 901131" d="M1,33.33H5.393v4.506H1Z" transform="translate(-0.246 -8.216)" fill="#c96f6a"/>
  <path id="Trazado_901132" data-name="Trazado 901132" d="M88.95,33.33h4.393v4.506H88.95Z" transform="translate(-21.925 -8.216)" fill="#c96f6a"/>
  <path id="Trazado_901133" data-name="Trazado 901133" d="M71.583,80.306H.754A.754.754,0,0,1,0,79.552V33.084a.754.754,0,0,1,.754-.754h70.83a.754.754,0,0,1,.754.754V79.552A.754.754,0,0,1,71.583,80.306ZM1.507,78.8H70.83V33.837H1.507Z" transform="translate(0 -7.969)" fill="#302d3d"/>
  <path id="Trazado_901134" data-name="Trazado 901134" d="M37.769,33.352V73.718H6.83V27H31.394a6.375,6.375,0,0,1,6.375,6.352Z" transform="translate(-1.684 -6.655)" fill="#f4e6b5"/>
  <path id="Trazado_901135" data-name="Trazado 901135" d="M37.769,33.352v2.924a6.375,6.375,0,0,0-6.375-6.382H6.83V27H31.394a6.375,6.375,0,0,1,6.375,6.352Z" transform="translate(-1.684 -6.655)" fill="#f4ffe2"/>
  <path id="Trazado_901136" data-name="Trazado 901136" d="M32.55,59.68V35.568a1.108,1.108,0,0,0-1.108-1.108H13.87a1.718,1.718,0,0,0-1.71,1.718v23.5a1.8,1.8,0,0,0,1.808,1.808H30.742A1.808,1.808,0,0,0,32.55,59.68Z" transform="translate(-2.997 -8.494)" fill="#fff"/>
  <path id="Trazado_901137" data-name="Trazado 901137" d="M34.273,27.88v45.3H6.83v.754H37.769V33.569a6.36,6.36,0,0,0-3.5-5.689Z" transform="translate(-1.684 -6.872)" fill="#f4c38d"/>
  <path id="Trazado_901138" data-name="Trazado 901138" d="M37.523,74.225H6.584a.754.754,0,0,1-.754-.754V26.754A.754.754,0,0,1,6.584,26H31.148a7.136,7.136,0,0,1,7.128,7.136V73.471a.754.754,0,0,1-.754.754ZM7.337,72.718H36.769V33.106a5.636,5.636,0,0,0-5.621-5.6H7.337Z" transform="translate(-1.437 -6.409)" fill="#302d3d"/>
  <path id="Trazado_901139" data-name="Trazado 901139" d="M37.769,86.915H6.83V80.54H31.394a6.367,6.367,0,0,1,6.375,6.375Z" transform="translate(-1.684 -19.852)" fill="#ff9d6e"/>
  <path id="Trazado_901140" data-name="Trazado 901140" d="M47.89,33.352V73.718H78.867V27H54.272a6.382,6.382,0,0,0-6.382,6.352Z" transform="translate(-11.804 -6.655)" fill="#f4e6b5"/>
  <path id="Trazado_901141" data-name="Trazado 901141" d="M78.867,27v2.924H54.272a6.382,6.382,0,0,0-6.382,6.382V33.352A6.382,6.382,0,0,1,54.272,27Z" transform="translate(-11.804 -6.655)" fill="#f4ffe2"/>
  <path id="Trazado_901142" data-name="Trazado 901142" d="M75.318,61.963V34H56a1.108,1.108,0,0,0-1.108,1.108V61.963a1.808,1.808,0,0,0,1.808,1.8H73.479a1.8,1.8,0,0,0,1.839-1.8Z" transform="translate(-13.53 -8.381)" fill="#fff"/>
  <path id="Trazado_901143" data-name="Trazado 901143" d="M78.62,74.225H47.644a.754.754,0,0,1-.754-.754V33.106A7.143,7.143,0,0,1,54.026,26H78.62a.754.754,0,0,1,.754.754V73.471A.754.754,0,0,1,78.62,74.225ZM48.4,72.718h29.47V27.507H54.026A5.636,5.636,0,0,0,48.4,33.136Z" transform="translate(-11.558 -6.409)" fill="#302d3d"/>
  <circle id="Elipse_11535" data-name="Elipse 11535" cx="5.455" cy="5.455" r="5.455" transform="translate(24.353 6.601)" fill="#f4e16a"/>
  <circle id="Elipse_11536" data-name="Elipse 11536" cx="8.093" cy="8.093" r="8.093" transform="translate(51.246 0.738)" fill="#f4e16a"/>
  <circle id="Elipse_11537" data-name="Elipse 11537" cx="7.723" cy="7.723" r="7.723" transform="translate(5.817 0.731)" fill="#f4e16a"/>
  <circle id="Elipse_11538" data-name="Elipse 11538" cx="6.744" cy="6.744" r="6.744" transform="translate(38.075 9.75)" fill="#f4e16a"/>
  <path id="Trazado_901144" data-name="Trazado 901144" d="M37.529,20.178a.754.754,0,0,1-.754-.754,4.709,4.709,0,0,0-4.7-4.7.754.754,0,0,1,0-1.507,4.709,4.709,0,0,0,4.7-4.7.754.754,0,0,1,1.507,0,4.709,4.709,0,0,0,4.709,4.7.754.754,0,1,1,0,1.507,4.709,4.709,0,0,0-4.709,4.7.754.754,0,0,1-.754.754Zm-2.494-6.209a6.254,6.254,0,0,1,2.494,2.494,6.352,6.352,0,0,1,2.494-2.494,6.307,6.307,0,0,1-2.494-2.494A6.209,6.209,0,0,1,35.035,13.969Z" transform="translate(-7.72 -1.913)" fill="#302d3d"/>
  <path id="Trazado_901145" data-name="Trazado 901145" d="M75.854,17.677a.754.754,0,0,1-.754-.754,7.347,7.347,0,0,0-7.347-7.339.754.754,0,0,1,0-1.507A7.347,7.347,0,0,0,75.1.753a.754.754,0,0,1,1.507,0A7.354,7.354,0,0,0,83.954,8.1a.754.754,0,0,1,0,1.507,7.347,7.347,0,0,0-7.347,7.339.754.754,0,0,1-.754.731ZM71.333,8.831a8.876,8.876,0,0,1,4.521,4.521,8.891,8.891,0,0,1,4.521-4.521A8.891,8.891,0,0,1,75.854,4.31a8.876,8.876,0,0,1-4.521,4.521Z" transform="translate(-16.515 0)" fill="#302d3d"/>
  <path id="Trazado_901146" data-name="Trazado 901146" d="M15.227,16.931a.754.754,0,0,1-.754-.754A6.977,6.977,0,0,0,7.5,9.208.754.754,0,0,1,7.5,7.7,6.977,6.977,0,0,0,14.473.754a.754.754,0,0,1,1.507,0,6.977,6.977,0,0,0,6.97,6.97.754.754,0,0,1,0,1.507,6.977,6.977,0,0,0-6.97,6.947A.754.754,0,0,1,15.227,16.931Zm-4.25-8.477a8.552,8.552,0,0,1,4.25,4.227,8.552,8.552,0,0,1,4.227-4.227,8.552,8.552,0,0,1-4.227-4.227,8.552,8.552,0,0,1-4.25,4.227Z" transform="translate(-1.664 0)" fill="#302d3d"/>
  <path id="Trazado_901147" data-name="Trazado 901147" d="M57.027,26.95a.754.754,0,0,1-.754-.754,6.028,6.028,0,0,0-5.99-5.99.754.754,0,1,1,0-1.507,6.028,6.028,0,0,0,5.99-5.945.754.754,0,0,1,1.507,0,6.028,6.028,0,0,0,5.983,5.983.754.754,0,1,1,0,1.507,6.028,6.028,0,0,0-5.983,6.028A.754.754,0,0,1,57.027,26.95Zm-3.466-7.5a7.588,7.588,0,0,1,3.466,3.474,7.535,7.535,0,0,1,3.466-3.474,7.535,7.535,0,0,1-3.466-3.466,7.535,7.535,0,0,1-3.466,3.466Z" transform="translate(-12.209 -2.958)" fill="#302d3d"/>
  <path id="Trazado_901148" data-name="Trazado 901148" d="M47.89,86.915H78.867V80.54H54.272A6.382,6.382,0,0,0,47.89,86.915Z" transform="translate(-11.804 -19.852)" fill="#ff9d6e"/>
  <path id="Trazado_901149" data-name="Trazado 901149" d="M37.523,87.422H6.584a.754.754,0,0,1-.754-.754V80.294a.754.754,0,0,1,.754-.754H31.148a7.143,7.143,0,0,1,7.128,7.128.754.754,0,0,1-.754.754ZM7.337,85.915H36.724a5.644,5.644,0,0,0-5.568-4.86H7.337Z" transform="translate(-1.437 -19.606)" fill="#302d3d"/>
  <path id="Trazado_901150" data-name="Trazado 901150" d="M78.62,87.424H47.644a.754.754,0,0,1-.754-.754,7.158,7.158,0,0,1,7.136-7.121H78.62a.754.754,0,0,1,.754.754v6.367A.754.754,0,0,1,78.62,87.424ZM48.48,85.917H77.867V81.049H54.026A5.659,5.659,0,0,0,48.48,85.917Z" transform="translate(-11.558 -19.608)" fill="#302d3d"/>
  <path id="Trazado_901151" data-name="Trazado 901151" d="M23.584,34.429h.964a9.321,9.321,0,0,1,0,18.634h-.964a9.321,9.321,0,1,1,0-18.634Z" transform="translate(-3.45 -8.485)" fill="#4d5377"/>
  <path id="Trazado_901152" data-name="Trazado 901152" d="M24.389,53.579h-.964a10.074,10.074,0,0,1,0-20.149h.964a10.074,10.074,0,0,1,0,20.149Zm-.964-18.642a8.567,8.567,0,0,0,0,17.135h.964a8.567,8.567,0,1,0,0-17.135Z" transform="translate(-3.291 -8.24)" fill="#302d3d"/>
  <path id="Trazado_901153" data-name="Trazado 901153" d="M27.855,45.066l5.523-4.009H26.559l-2.11-6.488-2.11,6.488H15.52l5.516,4.009-2.1,6.488,5.516-4.009,5.516,4.009Z" transform="translate(-3.826 -8.521)" fill="#f73962"/>
  <g id="Grupo_1112822" data-name="Grupo 1112822" transform="translate(4.393 25.305)">
    <path id="Trazado_901154" data-name="Trazado 901154" d="M29.717,52.064c-.339,0,0,.173-5.516-3.835l-5.079,3.692a.754.754,0,0,1-1.16-.844l1.944-5.968-5.079-3.677a.754.754,0,0,1,.445-1.364h6.269L23.486,34.1a.754.754,0,0,1,1.432,0l1.937,5.968h6.277a.754.754,0,0,1,.445,1.364L28.5,45.117l1.937,5.968a.754.754,0,0,1-.716.98ZM24.2,46.548c.347,0,.2,0,4.084,2.788l-1.394-4.28a.754.754,0,0,1,.279-.844l3.639-2.645H26.289a.754.754,0,0,1-.754-.52L24.2,36.76l-1.394,4.287a.754.754,0,0,1-.716.52H17.571l3.639,2.645a.754.754,0,0,1,.271.844l-1.326,4.28C24.028,46.5,23.863,46.548,24.2,46.548Z" transform="translate(-7.971 -33.582)" fill="#302d3d"/>
    <path id="Trazado_901155" data-name="Trazado 901155" d="M84.977,86.187H73.434a.754.754,0,0,1,0-1.507H84.977a.754.754,0,0,1,0,1.507Z" transform="translate(-22.308 -46.177)" fill="#302d3d"/>
    <path id="Trazado_901156" data-name="Trazado 901156" d="M64.388,86.187H59.754a.754.754,0,0,1,0-1.507h4.634a.754.754,0,0,1,0,1.507Z" transform="translate(-18.936 -46.177)" fill="#302d3d"/>
    <path id="Trazado_901157" data-name="Trazado 901157" d="M22.709,85.277H6.584a.754.754,0,0,1,0-1.507H22.709a.754.754,0,0,1,0,1.507Z" transform="translate(-5.83 -45.953)" fill="#302d3d"/>
    <path id="Trazado_901158" data-name="Trazado 901158" d="M33.72,67.432c-2.132,0-2.321-1.175-3.918-1.175s-1.756,1.175-3.9,1.175-2.261-1.175-3.918-1.175-1.778,1.175-3.918,1.175-2.328-1.175-3.926-1.175a.754.754,0,1,1,0-1.507c2.132,0,2.328,1.175,3.926,1.175s1.778-1.175,3.918-1.175,2.321,1.175,3.918,1.175,1.771-1.175,3.926-1.175,2.261,1.175,3.918,1.175a.754.754,0,1,1,0,1.507Z" transform="translate(-7.693 -41.265)" fill="#302d3d"/>
    <path id="Trazado_901159" data-name="Trazado 901159" d="M33.72,74.442c-2.14,0-2.313-1.175-3.918-1.175s-1.786,1.175-3.9,1.175-2.321-1.175-3.918-1.175-1.771,1.175-3.918,1.175-2.328-1.175-3.926-1.175a.754.754,0,1,1,0-1.507c2.132,0,2.328,1.175,3.926,1.175s1.763-1.175,3.918-1.175,2.321,1.175,3.918,1.175,1.771-1.175,3.926-1.175,2.321,1.175,3.918,1.175a.754.754,0,1,1,0,1.507Z" transform="translate(-7.693 -42.993)" fill="#302d3d"/>
    <path id="Trazado_901160" data-name="Trazado 901160" d="M74.765,36.472c-2.125,0-2.321-1.175-3.918-1.175s-1.771,1.175-3.941,1.175S64.645,35.3,62.988,35.3s-1.786,1.175-3.918,1.175S56.809,35.3,55.144,35.3a.754.754,0,0,1,0-1.507c2.132,0,2.328,1.175,3.926,1.175s1.778-1.175,3.918-1.175,2.321,1.175,3.918,1.175,1.771-1.175,3.926-1.175,2.328,1.175,3.918,1.175a.754.754,0,0,1,0,1.507Z" transform="translate(-17.8 -33.633)" fill="#302d3d"/>
    <path id="Trazado_901161" data-name="Trazado 901161" d="M74.765,43.482c-2.125,0-2.321-1.175-3.918-1.175s-1.771,1.175-3.941,1.175-2.261-1.175-3.918-1.175-1.786,1.175-3.918,1.175-2.261-1.175-3.926-1.175a.754.754,0,0,1,0-1.507c2.132,0,2.328,1.175,3.926,1.175S60.878,40.8,63,40.8s2.321,1.175,3.918,1.175S68.692,40.8,70.847,40.8s2.328,1.175,3.918,1.175a.754.754,0,0,1,0,1.507Z" transform="translate(-17.8 -35.361)" fill="#302d3d"/>
    <path id="Trazado_901162" data-name="Trazado 901162" d="M74.765,50.482c-2.125,0-2.321-1.175-3.918-1.175s-1.771,1.175-3.941,1.175-2.321-1.175-3.918-1.175-1.771,1.175-3.918,1.175-2.328-1.175-3.926-1.175a.754.754,0,0,1,0-1.507c2.17,0,2.261,1.175,3.926,1.175S60.878,47.8,63,47.8s2.261,1.175,3.918,1.175S68.692,47.8,70.847,47.8s2.321,1.175,3.918,1.175a.754.754,0,0,1,0,1.507Z" transform="translate(-17.8 -37.087)" fill="#302d3d"/>
    <path id="Trazado_901163" data-name="Trazado 901163" d="M74.765,57.492c-2.125,0-2.321-1.175-3.918-1.175s-1.771,1.175-3.941,1.175-2.321-1.175-3.918-1.175-1.771,1.175-3.918,1.175-2.328-1.175-3.926-1.175a.754.754,0,0,1,0-1.507c2.17,0,2.261,1.175,3.926,1.175s1.763-1.175,3.918-1.175,2.261,1.175,3.918,1.175,1.771-1.175,3.926-1.175,2.321,1.175,3.918,1.175a.754.754,0,1,1,0,1.507Z" transform="translate(-17.8 -38.815)" fill="#302d3d"/>
    <path id="Trazado_901164" data-name="Trazado 901164" d="M74.765,64.493c-2.125,0-2.321-1.175-3.918-1.175s-1.771,1.175-3.941,1.175-2.261-1.175-3.918-1.175-1.786,1.175-3.918,1.175-2.261-1.175-3.926-1.175a.754.754,0,0,1,0-1.507c2.132,0,2.328,1.175,3.926,1.175s1.778-1.175,3.918-1.175,2.321,1.175,3.918,1.175,1.771-1.175,3.926-1.175,2.328,1.175,3.918,1.175a.754.754,0,0,1,0,1.507Z" transform="translate(-17.8 -40.54)" fill="#302d3d"/>
    <path id="Trazado_901165" data-name="Trazado 901165" d="M74.765,71.5c-2.125,0-2.321-1.175-3.918-1.175S69.076,71.5,66.906,71.5s-2.261-1.175-3.918-1.175S61.2,71.5,59.069,71.5s-2.261-1.175-3.926-1.175a.754.754,0,0,1,0-1.507c2.132,0,2.328,1.175,3.926,1.175s1.778-1.175,3.918-1.175S65.308,70,66.906,70s1.771-1.175,3.926-1.175S73.16,70,74.75,70a.754.754,0,0,1,0,1.507Z" transform="translate(-17.8 -42.268)" fill="#302d3d"/>
  </g>
</svg>
