<svg xmlns="http://www.w3.org/2000/svg" width="69.652" height="64.781" viewBox="0 0 69.652 64.781">
  <g id="Layer_x0020_1" transform="translate(0 -59.362)">
    <path id="Trazado_901166" data-name="Trazado 901166" d="M51.9,89.42a1.185,1.185,0,0,1-.449-2.285l1.877-.694-7.263-5.957a1.189,1.189,0,0,1,1.51-1.836L56.39,85.91a1.186,1.186,0,0,1-.326,2.04Zm16.566,34.724H1.183A1.184,1.184,0,0,1,0,122.96V65.631a1.184,1.184,0,0,1,1.183-1.183H8.12V60.694a1.2,1.2,0,0,1,1.1-1.183A42.362,42.362,0,0,1,33.01,64.448H68.468a1.184,1.184,0,0,1,1.183,1.183V122.96A1.184,1.184,0,0,1,68.468,124.143Zm-34.6-2.367H67.285V66.814H33.867Zm-6.529,0a42.1,42.1,0,0,0-17.954-2.571,1.177,1.177,0,0,1-1.265-1.183V66.814H2.367v54.962ZM31.5,66.325A41.237,41.237,0,0,0,10.486,61.8v54.962A43.876,43.876,0,0,1,31.5,121Zm-3.387,5.631a1.2,1.2,0,0,1-.653-.163,23.11,23.11,0,0,0-13.506-3.019,1.188,1.188,0,0,1-.2-2.367,25.509,25.509,0,0,1,15.016,3.387A1.182,1.182,0,0,1,28.114,71.956Zm0,6.161a1.2,1.2,0,0,1-.653-.163,23.11,23.11,0,0,0-13.506-3.019,1.167,1.167,0,1,1-.2-2.326,25.307,25.307,0,0,1,15.016,3.346A1.182,1.182,0,0,1,28.114,78.117Zm0,6.2a1.233,1.233,0,0,1-.653-.2A23.471,23.471,0,0,0,13.955,81.1a1.167,1.167,0,0,1-.2-2.326,25.653,25.653,0,0,1,15.016,3.346A1.209,1.209,0,0,1,28.114,84.319Zm0,6.161a1.233,1.233,0,0,1-.653-.2A23.263,23.263,0,0,0,13.955,87.3a1.188,1.188,0,0,1-.2-2.367,25.509,25.509,0,0,1,15.016,3.387A1.184,1.184,0,0,1,28.114,90.48Zm0,6.161a.96.96,0,0,1-.653-.2,23.263,23.263,0,0,0-13.506-2.979,1.188,1.188,0,0,1-.2-2.367,25.509,25.509,0,0,1,15.016,3.387A1.177,1.177,0,0,1,28.114,96.642Zm0,6.161a1.2,1.2,0,0,1-.653-.163A23.11,23.11,0,0,0,13.955,99.62a1.188,1.188,0,0,1-.2-2.367,25.509,25.509,0,0,1,15.016,3.387A1.182,1.182,0,0,1,28.114,102.8Zm0,6.161a1.2,1.2,0,0,1-.653-.163,23.11,23.11,0,0,0-13.506-3.019,1.167,1.167,0,0,1-.2-2.326A25.307,25.307,0,0,1,28.766,106.8,1.182,1.182,0,0,1,28.114,108.964Zm0,6.2a1.233,1.233,0,0,1-.653-.2,23.471,23.471,0,0,0-13.506-3.019,1.167,1.167,0,1,1-.2-2.326,25.653,25.653,0,0,1,15.016,3.346A1.209,1.209,0,0,1,28.114,115.167Zm25.461-10.282H37.906a1.183,1.183,0,0,1,0-2.367H53.575A1.183,1.183,0,0,1,53.575,104.884Zm9.63,6.243h-25.3a1.183,1.183,0,0,1,0-2.367H63.2A1.183,1.183,0,1,1,63.2,111.127Zm0,6.243h-25.3a1.183,1.183,0,0,1,0-2.367H63.2A1.183,1.183,0,1,1,63.2,117.37Zm-.571-14.934-.694-.2L42.966,89.216a1.184,1.184,0,0,1,.245-2.081l1.877-.694-7.263-5.957a1.166,1.166,0,0,1,.326-2l2.163-.816L36.4,73.18a1.175,1.175,0,0,1,.9-1.959H60.063a1.229,1.229,0,0,1,1.1.694l3.754,8.65a1.174,1.174,0,0,1-1.061,1.673H61.9l3.019,7.018a1.143,1.143,0,0,1-1.061,1.632H61.532l2.285,10.364A1.184,1.184,0,0,1,62.633,102.436ZM46.19,88.563,60.838,98.6,58.92,89.95a1.179,1.179,0,0,1,1.142-1.428h2L59,81.544a1.206,1.206,0,0,1,1.061-1.673h2l-2.775-6.284H39.906l3.305,3.795a1.156,1.156,0,0,1-.449,1.877l-1.836.694,7.222,5.957a1.186,1.186,0,0,1-.326,2.04Z" transform="translate(0 0)" fill-rule="evenodd"/>
    <path id="Trazado_901167" data-name="Trazado 901167" d="M858.073,277.417,839.1,264.4a1.184,1.184,0,0,1,.245-2.081l1.877-.694-7.263-5.957a1.166,1.166,0,0,1,.326-2l2.163-.816-3.917-4.488a1.175,1.175,0,0,1,.9-1.959H856.2a1.229,1.229,0,0,1,1.1.694l3.754,8.65a1.174,1.174,0,0,1-1.061,1.673h-1.959l3.019,7.018a1.143,1.143,0,0,1-1.061,1.632h-2.326l2.285,10.364a1.184,1.184,0,0,1-1.183,1.183Zm-24.033.286h15.669a1.183,1.183,0,0,1,0,2.367H834.04A1.183,1.183,0,0,1,834.04,277.7Zm0,6.243h25.3a1.183,1.183,0,1,1,0,2.367h-25.3A1.183,1.183,0,0,1,834.04,283.946Zm0,6.243h25.3a1.183,1.183,0,1,1,0,2.367h-25.3A1.183,1.183,0,0,1,834.04,290.189ZM830,296.962h33.418V242H830Z" transform="translate(-796.133 -175.186)" fill="#ccf" fill-rule="evenodd"/>
    <path id="Trazado_901168" data-name="Trazado 901168" d="M985.671,413.06l8.814,7.263a1.186,1.186,0,0,1-.327,2.04L990,423.832a1.185,1.185,0,0,1-.449-2.285l1.877-.694-7.263-5.957A1.189,1.189,0,0,1,985.671,413.06Zm-6.651,1.306,7.222,5.957a1.186,1.186,0,0,1-.326,2.04l-1.632.612,14.648,10.038-1.918-8.65a1.179,1.179,0,0,1,1.143-1.428h2l-3.06-6.977a1.207,1.207,0,0,1,1.061-1.673h2L997.382,408H978l3.305,3.795a1.156,1.156,0,0,1-.449,1.877Z" transform="translate(-938.094 -334.412)" fill="#ffa721" fill-rule="evenodd"/>
    <path id="Trazado_901169" data-name="Trazado 901169" d="M278.014,176.877V122.2A41.237,41.237,0,0,0,257,117.671v54.962A43.876,43.876,0,0,1,278.014,176.877Zm-3.387-49.046a1.2,1.2,0,0,1-.653-.163,23.11,23.11,0,0,0-13.506-3.019,1.188,1.188,0,0,1-.2-2.367,25.509,25.509,0,0,1,15.016,3.387A1.182,1.182,0,0,1,274.627,127.831Zm-14.363.653a25.307,25.307,0,0,1,15.016,3.346,1.182,1.182,0,0,1-.653,2.163,1.2,1.2,0,0,1-.653-.163,23.11,23.11,0,0,0-13.506-3.019A1.167,1.167,0,1,1,260.264,128.484Zm0,6.161a25.652,25.652,0,0,1,15.016,3.346,1.209,1.209,0,0,1-.653,2.2,1.233,1.233,0,0,1-.653-.2,23.471,23.471,0,0,0-13.506-3.019A1.167,1.167,0,0,1,260.264,134.645Zm0,6.161a25.509,25.509,0,0,1,15.016,3.387,1.184,1.184,0,0,1-.653,2.163,1.233,1.233,0,0,1-.653-.2,23.263,23.263,0,0,0-13.506-2.979A1.188,1.188,0,0,1,260.264,140.806Zm0,6.161a25.509,25.509,0,0,1,15.016,3.387,1.177,1.177,0,0,1-.653,2.163.96.96,0,0,1-.653-.2,23.263,23.263,0,0,0-13.506-2.979A1.188,1.188,0,0,1,260.264,146.968Zm0,6.161a25.509,25.509,0,0,1,15.016,3.387,1.182,1.182,0,0,1-.653,2.163,1.2,1.2,0,0,1-.653-.163,23.11,23.11,0,0,0-13.506-3.019A1.188,1.188,0,0,1,260.264,153.129Zm0,6.2a25.307,25.307,0,0,1,15.016,3.346,1.182,1.182,0,0,1-.653,2.163,1.2,1.2,0,0,1-.653-.163,23.11,23.11,0,0,0-13.506-3.019A1.167,1.167,0,0,1,260.264,159.331Zm0,6.161a25.652,25.652,0,0,1,15.016,3.346,1.209,1.209,0,0,1-.653,2.2,1.233,1.233,0,0,1-.653-.2,23.471,23.471,0,0,0-13.506-3.019A1.167,1.167,0,1,1,260.264,165.492Z" transform="translate(-246.514 -55.875)" fill="#b495f0" fill-rule="evenodd"/>
    <path id="Trazado_901170" data-name="Trazado 901170" d="M63.753,293.208V242H58v54.962H82.972a42.094,42.094,0,0,0-17.954-2.571A1.178,1.178,0,0,1,63.753,293.208Z" transform="translate(-55.633 -175.186)" fill="#ccf" fill-rule="evenodd"/>
  </g>
</svg>
