<svg xmlns="http://www.w3.org/2000/svg" width="59.998" height="59.999" viewBox="0 0 59.998 59.999">
  <g id="Grupo_1112724" data-name="Grupo 1112724" transform="translate(-2 -2)">
    <path id="Trazado_900917" data-name="Trazado 900917" d="M47.268,61H16.733V3h4.346L25,9l5.406-6,5.525,8L42.7,3h4.565Z" fill="#455b64"/>
    <path id="Trazado_900918" data-name="Trazado 900918" d="M47.27,3V61H16.73V3h4.35L24,7.47,25,9l1-1.11L30.41,3l4.52,6.55,1,1.45,1-1.18L42.7,3Z" fill="#455b64"/>
    <path id="Trazado_900919" data-name="Trazado 900919" d="M22.387,5,21.08,3H16.73V61h2V8.657A3.657,3.657,0,0,1,22.387,5Z" fill="#263238"/>
    <path id="Trazado_900920" data-name="Trazado 900920" d="M32,40.5l3.913-1.465,3.409,2.273L43,32.059l-6.908,3.683-1.734-2.3L32,34.456,29.643,33.44l-1.735,2.3L21,32.059l3.679,9.246,3.409-2.273Z" fill="#f9a01b"/>
    <path id="Trazado_900921" data-name="Trazado 900921" d="M27.908,36.742l1.735-2.3L32,35.456l2.358-1.016,1.734,2.3,6.4-3.414L43,32.059l-6.908,3.683-1.734-2.3L32,34.456,29.643,33.44l-1.735,2.3L21,32.059l.5,1.269Z" fill="#f37021"/>
    <path id="Trazado_900922" data-name="Trazado 900922" d="M35.066,25.787c1.009-1.247,2.878-3.071,5.194-3.092a4.821,4.821,0,0,1,.485,4.525c-.717,1.747-3.559.933-5.237.269a1.089,1.089,0,0,1-.442-1.7Z" fill="#f9a01b"/>
    <path id="Trazado_900923" data-name="Trazado 900923" d="M35.066,26.787c1.009-1.247,2.878-3.071,5.194-3.092a4.9,4.9,0,0,1,.815,2.231,4.89,4.89,0,0,0-.815-3.231c-2.317.021-4.186,1.845-5.194,3.092a1.093,1.093,0,0,0-.122,1.195,1.15,1.15,0,0,1,.122-.195Z" fill="#f37021"/>
    <path id="Trazado_900924" data-name="Trazado 900924" d="M28.934,25.787c-1.009-1.247-2.878-3.071-5.194-3.092a4.821,4.821,0,0,0-.485,4.525c.717,1.747,3.559.933,5.237.269a1.089,1.089,0,0,0,.442-1.7Z" fill="#f9a01b"/>
    <path id="Trazado_900925" data-name="Trazado 900925" d="M23.74,23.695c2.317.021,4.186,1.845,5.194,3.092a1.091,1.091,0,0,1,.122.195,1.093,1.093,0,0,0-.122-1.195c-1.009-1.247-2.878-3.071-5.194-3.092a4.89,4.89,0,0,0-.815,3.231A4.9,4.9,0,0,1,23.74,23.695Z" fill="#f37021"/>
    <path id="Trazado_900926" data-name="Trazado 900926" d="M53.052,61V58.223a4.4,4.4,0,0,0-4.4-4.4,4.352,4.352,0,0,0-2.7.947,2.988,2.988,0,0,0-5.946.312,8.989,8.989,0,0,0-16.022,0,2.988,2.988,0,0,0-5.946-.312,4.376,4.376,0,0,0-7.1,3.451V61Z" fill="#6d4d42"/>
    <path id="Trazado_900927" data-name="Trazado 900927" d="M48.654,53.825a4.352,4.352,0,0,0-2.7.947,2.988,2.988,0,0,0-5.946.312,8.989,8.989,0,0,0-16.022,0,2.988,2.988,0,0,0-5.946-.312,4.376,4.376,0,0,0-7.1,3.451v2a4.4,4.4,0,0,1,4.4-4.4,4.352,4.352,0,0,1,2.7.947,2.988,2.988,0,0,1,5.946.312,8.989,8.989,0,0,1,16.022,0,2.988,2.988,0,0,1,5.946-.312,4.376,4.376,0,0,1,7.1,3.451v-2A4.4,4.4,0,0,0,48.654,53.825Z" fill="#4e342e"/>
    <g id="Grupo_1112723" data-name="Grupo 1112723">
      <path id="Trazado_900928" data-name="Trazado 900928" d="M61.6,24.915a1,1,0,0,0-1.4.195L56.659,29.8l-3.19-1.557,3.142-2.557a1,1,0,0,0,.369-.775V9.139a1,1,0,0,0-2,0v4.927L51.99,12.3V6.815a1,1,0,0,0-2,0v6.06a1,1,0,0,0,.492.861l4.5,2.65v8.049L48.268,29.9V3a1,1,0,0,0-1-1H42.7a1,1,0,0,0-.763.354l-5.929,7L31.229,2.432A1,1,0,0,0,30.471,2a1.023,1.023,0,0,0-.808.329L25.127,7.365l-3.21-4.912A1,1,0,0,0,21.08,2H16.733a1,1,0,0,0-1,1V38.564L7.882,28.054V19.591l5.086-1.565a1,1,0,0,0,.706-.956V10.743a1,1,0,1,0-2,0v5.589L7.882,17.5V10.209a1,1,0,0,0-2,0V28.386a1,1,0,0,0,.2.6l2.937,3.932-2.892-.524L3.894,27.938a1,1,0,1,0-1.788.9l2.456,4.9a1,1,0,0,0,.715.536l5.5,1,4.958,6.637V52.845a5.4,5.4,0,0,0-5.785,5.378V61a1,1,0,0,0,2,0V58.223a3.4,3.4,0,0,1,3.4-3.4,3.356,3.356,0,0,1,2.08.734,1,1,0,0,0,1.607-.647,1.988,1.988,0,0,1,3.956.208,1,1,0,0,0,1.889.418,7.989,7.989,0,0,1,14.242,0,1,1,0,0,0,1.889-.418,1.988,1.988,0,0,1,3.956-.208,1,1,0,0,0,1.607.647,3.356,3.356,0,0,1,2.08-.734,3.4,3.4,0,0,1,3.4,3.4V61a1,1,0,0,0,2,0V58.223a5.4,5.4,0,0,0-5.785-5.378V32.475l3.492-2.841,4.762,2.324a1,1,0,0,0,1.236-.3l4.04-5.347a1,1,0,0,0-.195-1.4ZM43,51.193a3.975,3.975,0,0,0-3.248,1.667,9.989,9.989,0,0,0-15.5,0,3.977,3.977,0,0,0-6.516.059V4h2.806L24,9.3v7.445a1,1,0,0,0,2,0V9.384l4.3-4.775,4.629,6.7V17.93a1,1,0,0,0,2,0V11.366L43.167,4h3.1v48.92A4,4,0,0,0,43,51.193Z"/>
      <path id="Trazado_900929" data-name="Trazado 900929" d="M42.529,31.176l-6.153,3.281-1.22-1.619a1,1,0,0,0-1.195-.316L32,33.368l-1.961-.846a1,1,0,0,0-1.195.316l-1.22,1.619-6.153-3.281a1,1,0,0,0-1.4,1.253l3.678,9.246a1,1,0,0,0,1.484.462l2.983-1.988,3.433,1.285a1.007,1.007,0,0,0,.7,0l3.433-1.285,2.983,1.988a1,1,0,0,0,1.484-.462l3.678-9.246a1,1,0,0,0-1.4-1.253Zm-3.68,8.612L36.467,38.2a1,1,0,0,0-.555-.168,1.016,1.016,0,0,0-.351.063L32,39.429,28.437,38.1a1,1,0,0,0-.905.1L25.15,39.787l-2.213-5.563,4.5,2.4a1,1,0,0,0,1.27-.281l1.261-1.675,1.636.705a1,1,0,0,0,.792,0l1.636-.705,1.261,1.675a1,1,0,0,0,1.27.281l4.5-2.4L38.85,39.787Z"/>
      <path id="Trazado_900930" data-name="Trazado 900930" d="M35.14,28.419a10.177,10.177,0,0,0,3.655.846A2.792,2.792,0,0,0,41.671,27.6a5.819,5.819,0,0,0-.613-5.509,1.028,1.028,0,0,0-.806-.4c-2.632.024-4.695,1.9-5.962,3.463a2.089,2.089,0,0,0,.851,3.261Zm.7-2a7.093,7.093,0,0,1,3.877-2.672,3.76,3.76,0,0,1,.1,3.1c-.271.659-1.856.545-4-.339a.091.091,0,0,1,.02-.085Z"/>
      <path id="Trazado_900931" data-name="Trazado 900931" d="M25.206,29.265a10.177,10.177,0,0,0,3.655-.846,2.09,2.09,0,0,0,.85-3.261c-1.267-1.566-3.331-3.438-5.962-3.463a1.051,1.051,0,0,0-.806.4A5.819,5.819,0,0,0,22.33,27.6,2.79,2.79,0,0,0,25.206,29.265Zm-.925-5.521a7.1,7.1,0,0,1,3.876,2.672l-.033.144c-2.089.826-3.674.939-3.944.28a3.77,3.77,0,0,1,.1-3.1Z"/>
    </g>
  </g>
</svg>
