<svg xmlns="http://www.w3.org/2000/svg" width="60.905" height="52.942" viewBox="0 0 60.905 52.942">
  <g id="Grupo_1112816" data-name="Grupo 1112816" transform="translate(-750.095 -625.462)">
    <g id="Grupo_1112815" data-name="Grupo 1112815" transform="translate(743.603 585.398)">
      <g id="Grupo_1112814" data-name="Grupo 1112814" transform="translate(7.499 41.064)">
        <g id="Grupo_1112810" data-name="Grupo 1112810" transform="translate(0 0)">
          <g id="Grupo_1112790" data-name="Grupo 1112790" transform="translate(11.543)">
            <path id="Trazado_901091" data-name="Trazado 901091" d="M140.053,92.006H105.924a1.025,1.025,0,0,1-1.025-1.025V42.089a1.025,1.025,0,0,1,1.025-1.025h34.129a1.025,1.025,0,0,1,1.025,1.025V90.981A1.025,1.025,0,0,1,140.053,92.006Z" transform="translate(-104.899 -41.064)" fill="#f2eff2"/>
            <path id="Trazado_901092" data-name="Trazado 901092" d="M140.88,196.508c.067-.02.133-.042.2-.067V176.782a2.645,2.645,0,0,0-3.586,2.472v5.676l-1.022-1.6a2.645,2.645,0,0,0-4.455,0l-1.021,1.6v-5.676a2.645,2.645,0,1,0-5.29,0v.48a10.3,10.3,0,0,0-18.26,4.978,7.689,7.689,0,0,0-2.546-1.432v20.912a2.639,2.639,0,0,0,1.663-4.021L105.155,198l1.486-.962a7.663,7.663,0,0,0,3.168-4.2,10.388,10.388,0,0,0,3.334,2.58.811.811,0,0,0-.01.121.777.777,0,0,0,.266.586,4.15,4.15,0,0,1,0,6.16.8.8,0,0,0,.532,1.4h.045a4.149,4.149,0,0,1,4.361,4.14c0,.071,0,.143,0,.216a.8.8,0,0,0,.807.843.778.778,0,0,0,.587-.266,4.15,4.15,0,0,1,6.16,0,.778.778,0,0,0,.587.266.8.8,0,0,0,.807-.843c0-.073,0-.144,0-.216a4.149,4.149,0,0,1,4.361-4.14h.045a.8.8,0,0,0,.532-1.4,4.15,4.15,0,0,1,0-6.16.777.777,0,0,0,.266-.586.8.8,0,0,0-.843-.808c-.073,0-.144,0-.216,0-.138,0-.274-.007-.408-.021l3.233-5.052,3.666,5.729a2.643,2.643,0,0,0,2.97,1.113Zm-22.642-6.768a3.631,3.631,0,1,1,2.993-4.173A3.635,3.635,0,0,1,118.239,189.74Z" transform="translate(-104.899 -159.877)" fill="#e1dde1"/>
            <path id="Trazado_901093" data-name="Trazado 901093" d="M372.052,42.089V90.981a1.025,1.025,0,0,1-1.025,1.025h-4.1a1.025,1.025,0,0,0,1.025-1.025V42.089a1.025,1.025,0,0,0-1.025-1.025h4.1A1.025,1.025,0,0,1,372.052,42.089Z" transform="translate(-335.872 -41.064)" fill="#e1dde1"/>
            <path id="Trazado_901094" data-name="Trazado 901094" d="M164.14,92.22V72.17a1.182,1.182,0,0,0-1.182-1.182H136.306a1.182,1.182,0,0,0-1.182,1.182V92.22a1.182,1.182,0,0,0,1.182,1.182h26.651A1.182,1.182,0,0,0,164.14,92.22Z" transform="translate(-131.542 -67.442)" fill="#fcb44d"/>
            <path id="Trazado_901095" data-name="Trazado 901095" d="M344.71,72.171V92.22a1.182,1.182,0,0,1-1.183,1.182H339.97a1.182,1.182,0,0,0,1.183-1.182V72.171a1.183,1.183,0,0,0-1.183-1.183h3.558A1.183,1.183,0,0,1,344.71,72.171Z" transform="translate(-312.112 -67.442)" fill="#fb9927"/>
            <path id="Trazado_901096" data-name="Trazado 901096" d="M135.124,79.1V92.22a1.182,1.182,0,0,0,1.182,1.182h26.651a1.182,1.182,0,0,0,1.182-1.182V72.17a1.182,1.182,0,0,0-1.182-1.182H136.306a1.182,1.182,0,0,0-1.182,1.182v3" transform="translate(-131.542 -67.442)" fill="none" stroke="#000" stroke-linecap="round" stroke-linejoin="round" stroke-miterlimit="10" stroke-width="2"/>
            <g id="Grupo_1112789" data-name="Grupo 1112789">
              <path id="Trazado_901097" data-name="Trazado 901097" d="M134.953,92.006h5.1a1.025,1.025,0,0,0,1.025-1.025V42.089a1.025,1.025,0,0,0-1.025-1.025H105.924a1.025,1.025,0,0,0-1.025,1.025V90.981a1.025,1.025,0,0,0,1.025,1.025h25.1" transform="translate(-104.899 -41.064)" fill="none" stroke="#000" stroke-linecap="round" stroke-linejoin="round" stroke-miterlimit="10" stroke-width="2"/>
            </g>
          </g>
          <g id="Grupo_1112809" data-name="Grupo 1112809" transform="translate(0 11.724)">
            <g id="Grupo_1112791" data-name="Grupo 1112791" transform="translate(0 7.027)">
              <path id="Trazado_901098" data-name="Trazado 901098" d="M12.412,200.523l-3.706,2.4a2.645,2.645,0,0,0-.782,3.658l8.34,12.876a2.645,2.645,0,0,0,4.44-2.876L19.3,214.41l1.486-.962a7.7,7.7,0,0,0-8.371-12.925Zm5.5,8.485-1.486.962-2.62-4.045,1.486-.962a2.41,2.41,0,1,1,2.62,4.045Z" transform="translate(-7.499 -199.288)" fill="#fc76c4"/>
              <path id="Trazado_901099" data-name="Trazado 901099" d="M44.9,213.446l-1.2.778a8.164,8.164,0,0,0-8.841-12.62l1.671-1.083A7.7,7.7,0,0,1,44.9,213.446Z" transform="translate(-31.614 -199.286)" fill="#fb54b6"/>
              <path id="Trazado_901100" data-name="Trazado 901100" d="M14.622,216.921l1.643,2.536a2.645,2.645,0,1,0,4.44-2.876L19.3,214.411l1.486-.962a7.7,7.7,0,0,0-8.371-12.925l-3.706,2.4a2.645,2.645,0,0,0-.782,3.658l4.554,7.031m5.429-4.6-1.486.962-2.62-4.045,1.486-.962a2.41,2.41,0,1,1,2.62,4.045Z" transform="translate(-7.499 -199.288)" fill="none" stroke="#000" stroke-linecap="round" stroke-linejoin="round" stroke-miterlimit="10" stroke-width="2"/>
            </g>
            <g id="Grupo_1112792" data-name="Grupo 1112792" transform="translate(13.986)">
              <path id="Trazado_901101" data-name="Trazado 901101" d="M137.5,160.467a10.305,10.305,0,1,1,8.495-11.842A10.317,10.317,0,0,1,137.5,160.467Zm-2.263-13.752a3.631,3.631,0,1,0,4.173,2.993A3.635,3.635,0,0,0,135.234,146.715Z" transform="translate(-125.517 -139.992)" fill="#975bbb"/>
            </g>
            <g id="Grupo_1112793" data-name="Grupo 1112793" transform="translate(22.161 0)">
              <path id="Trazado_901102" data-name="Trazado 901102" d="M198.308,160.469a10.265,10.265,0,0,1-3.805-.085,10.305,10.305,0,0,0,0-20.166c.15-.032.3-.06.456-.085a10.305,10.305,0,1,1,3.348,20.337Z" transform="translate(-194.503 -139.995)" fill="#804d9e"/>
            </g>
            <g id="Grupo_1112794" data-name="Grupo 1112794" transform="translate(13.986)">
              <path id="Trazado_901103" data-name="Trazado 901103" d="M137.5,160.467a10.305,10.305,0,1,1,8.495-11.842A10.317,10.317,0,0,1,137.5,160.467Zm-2.263-13.752a3.631,3.631,0,1,0,4.173,2.993A3.635,3.635,0,0,0,135.234,146.715Z" transform="translate(-125.517 -139.992)" fill="none" stroke="#000" stroke-linecap="round" stroke-linejoin="round" stroke-miterlimit="10" stroke-width="2"/>
            </g>
            <g id="Grupo_1112801" data-name="Grupo 1112801" transform="translate(32.348 0.758)">
              <g id="Grupo_1112796" data-name="Grupo 1112796">
                <g id="Grupo_1112795" data-name="Grupo 1112795">
                  <path id="Trazado_901104" data-name="Trazado 901104" d="M294.9,166.4a2.645,2.645,0,0,1-2.228-1.219L289,159.449l-3.666,5.729a2.645,2.645,0,0,1-4.873-1.426V149.037a2.645,2.645,0,1,1,5.29,0v5.676l1.021-1.6a2.645,2.645,0,0,1,4.455,0l1.022,1.6v-5.676a2.645,2.645,0,1,1,5.29,0v14.716A2.646,2.646,0,0,1,294.9,166.4Z" transform="translate(-280.465 -146.392)" fill="#fc76c4"/>
                </g>
              </g>
              <g id="Grupo_1112798" data-name="Grupo 1112798" transform="translate(13.014 0)">
                <g id="Grupo_1112797" data-name="Grupo 1112797">
                  <path id="Trazado_901105" data-name="Trazado 901105" d="M394.343,149.039v14.716a2.644,2.644,0,0,1-4.064,2.232,2.644,2.644,0,0,0,1.225-2.232V149.039a2.641,2.641,0,0,0-1.225-2.231,2.618,2.618,0,0,1,1.419-.414A2.645,2.645,0,0,1,394.343,149.039Z" transform="translate(-390.279 -146.395)" fill="#fb54b6"/>
                </g>
              </g>
              <g id="Grupo_1112800" data-name="Grupo 1112800">
                <g id="Grupo_1112799" data-name="Grupo 1112799">
                  <path id="Trazado_901106" data-name="Trazado 901106" d="M294.9,166.4a2.645,2.645,0,0,1-2.228-1.219L289,159.449l-3.666,5.729a2.645,2.645,0,0,1-4.873-1.426V149.037a2.645,2.645,0,1,1,5.29,0v5.676l1.021-1.6a2.645,2.645,0,0,1,4.455,0l1.022,1.6v-5.676a2.645,2.645,0,1,1,5.29,0v14.716A2.646,2.646,0,0,1,294.9,166.4Z" transform="translate(-280.465 -146.392)" fill="none" stroke="#000" stroke-linecap="round" stroke-linejoin="round" stroke-miterlimit="10" stroke-width="2"/>
                </g>
              </g>
            </g>
            <g id="Grupo_1112808" data-name="Grupo 1112808" transform="translate(53.608 0.752)">
              <g id="Grupo_1112805" data-name="Grupo 1112805">
                <g id="Grupo_1112802" data-name="Grupo 1112802" transform="translate(0 0)">
                  <path id="Trazado_901107" data-name="Trazado 901107" d="M462.5,159.87a2.645,2.645,0,0,1-2.645-2.645v-8.242a2.645,2.645,0,1,1,5.29,0v8.242A2.645,2.645,0,0,1,462.5,159.87Z" transform="translate(-459.86 -146.338)" fill="#fc76c4"/>
                </g>
                <g id="Grupo_1112803" data-name="Grupo 1112803" transform="translate(1.226)">
                  <path id="Trazado_901108" data-name="Trazado 901108" d="M474.27,148.981v8.241a2.644,2.644,0,0,1-4.064,2.231,2.638,2.638,0,0,0,1.225-2.231v-8.241a2.642,2.642,0,0,0-1.225-2.232,2.618,2.618,0,0,1,1.419-.414A2.645,2.645,0,0,1,474.27,148.981Z" transform="translate(-470.206 -146.336)" fill="#fb54b6"/>
                </g>
                <circle id="Elipse_11533" data-name="Elipse 11533" cx="2.645" cy="2.645" r="2.645" transform="translate(0 16.609)" fill="#fc76c4"/>
                <g id="Grupo_1112804" data-name="Grupo 1112804" transform="translate(1.226 16.609)">
                  <path id="Trazado_901109" data-name="Trazado 901109" d="M474.27,289.136a2.646,2.646,0,0,1-2.646,2.646,2.618,2.618,0,0,1-1.419-.414,2.645,2.645,0,0,0,0-4.462,2.618,2.618,0,0,1,1.419-.414A2.645,2.645,0,0,1,474.27,289.136Z" transform="translate(-470.206 -286.492)" fill="#fb54b6"/>
                </g>
              </g>
              <g id="Grupo_1112807" data-name="Grupo 1112807" transform="translate(0 0)">
                <g id="Grupo_1112806" data-name="Grupo 1112806" transform="translate(0)">
                  <path id="Trazado_901110" data-name="Trazado 901110" d="M462.5,159.87a2.645,2.645,0,0,1-2.645-2.645v-8.242a2.645,2.645,0,1,1,5.29,0v8.242A2.645,2.645,0,0,1,462.5,159.87Z" transform="translate(-459.86 -146.338)" fill="none" stroke="#000" stroke-linecap="round" stroke-linejoin="round" stroke-miterlimit="10" stroke-width="2"/>
                </g>
                <circle id="Elipse_11534" data-name="Elipse 11534" cx="2.645" cy="2.645" r="2.645" transform="translate(0 16.609)" fill="none" stroke="#000" stroke-linecap="round" stroke-linejoin="round" stroke-miterlimit="10" stroke-width="2"/>
              </g>
            </g>
          </g>
        </g>
        <g id="Grupo_1112813" data-name="Grupo 1112813" transform="translate(19.776 25.409)">
          <g id="Grupo_1112811" data-name="Grupo 1112811">
            <path id="Trazado_901111" data-name="Trazado 901111" d="M192.085,265.143a4.135,4.135,0,0,1,1.369-3.08.777.777,0,0,0,.266-.586.8.8,0,0,0-.843-.808c-.073,0-.144,0-.216,0a4.148,4.148,0,0,1-4.14-4.359c0-.015,0-.03,0-.045a.8.8,0,0,0-1.4-.533,4.15,4.15,0,0,1-6.16,0,.8.8,0,0,0-1.4.533c0,.015,0,.03,0,.045a4.148,4.148,0,0,1-4.14,4.359c-.071,0-.143,0-.216,0a.8.8,0,0,0-.843.808.777.777,0,0,0,.266.586,4.15,4.15,0,0,1,0,6.16.8.8,0,0,0,.532,1.4h.045a4.149,4.149,0,0,1,4.361,4.14c0,.071,0,.143,0,.216a.8.8,0,0,0,.807.843.778.778,0,0,0,.587-.266,4.15,4.15,0,0,1,6.16,0,.778.778,0,0,0,.587.266.8.8,0,0,0,.807-.843c0-.073,0-.144,0-.216a4.149,4.149,0,0,1,4.361-4.14h.045a.8.8,0,0,0,.532-1.4A4.134,4.134,0,0,1,192.085,265.143Z" transform="translate(-174.375 -255.471)" fill="#fdef63"/>
            <path id="Trazado_901112" data-name="Trazado 901112" d="M269.456,268.222a.8.8,0,0,1-.532,1.4h-.044a4.148,4.148,0,0,0-4.361,4.14c0,.071,0,.142.005.216a.8.8,0,0,1-.807.843.774.774,0,0,1-.587-.267,4.137,4.137,0,0,0-2.532-1.332,9,9,0,0,0,0-16.149,4.125,4.125,0,0,0,2.536-1.331.8.8,0,0,1,1.394.532v.046a4.148,4.148,0,0,0,4.14,4.36c.071,0,.142,0,.216-.005a.8.8,0,0,1,.843.808.774.774,0,0,1-.267.586,4.152,4.152,0,0,0,0,6.161Z" transform="translate(-250.377 -255.47)" fill="#f3d730"/>
            <path id="Trazado_901113" data-name="Trazado 901113" d="M192.085,265.143a4.135,4.135,0,0,1,1.369-3.08.777.777,0,0,0,.266-.586.8.8,0,0,0-.843-.808c-.073,0-.144,0-.216,0a4.148,4.148,0,0,1-4.14-4.359c0-.015,0-.03,0-.045a.8.8,0,0,0-1.4-.533,4.15,4.15,0,0,1-6.16,0,.8.8,0,0,0-1.4.533c0,.015,0,.03,0,.045a4.148,4.148,0,0,1-4.14,4.359c-.071,0-.143,0-.216,0a.8.8,0,0,0-.843.808.777.777,0,0,0,.266.586,4.15,4.15,0,0,1,0,6.16.8.8,0,0,0,.532,1.4h.045a4.149,4.149,0,0,1,4.361,4.14c0,.071,0,.143,0,.216a.8.8,0,0,0,.807.843.778.778,0,0,0,.587-.266,4.15,4.15,0,0,1,6.16,0,.778.778,0,0,0,.587.266.8.8,0,0,0,.807-.843c0-.073,0-.144,0-.216a4.149,4.149,0,0,1,4.361-4.14h.045a.8.8,0,0,0,.532-1.4A4.134,4.134,0,0,1,192.085,265.143Z" transform="translate(-174.375 -255.471)" fill="none" stroke="#000" stroke-linecap="round" stroke-linejoin="round" stroke-miterlimit="10" stroke-width="2"/>
          </g>
          <g id="Grupo_1112812" data-name="Grupo 1112812" transform="translate(9.673 5.964)">
            <line id="Línea_598" data-name="Línea 598" y1="3.808" fill="none" stroke="#000" stroke-linecap="round" stroke-linejoin="round" stroke-miterlimit="10" stroke-width="2"/>
            <line id="Línea_599" data-name="Línea 599" y2="0.268" transform="translate(0 7.149)" fill="none" stroke="#000" stroke-linecap="round" stroke-linejoin="round" stroke-miterlimit="10" stroke-width="2"/>
          </g>
        </g>
      </g>
      <line id="Línea_600" data-name="Línea 600" x1="12.972" transform="translate(26.876 48.648)" fill="none" stroke="#000" stroke-linecap="round" stroke-linejoin="round" stroke-miterlimit="10" stroke-width="2"/>
      <line id="Línea_601" data-name="Línea 601" x1="3.77" transform="translate(43.618 48.648)" fill="none" stroke="#000" stroke-linecap="round" stroke-linejoin="round" stroke-miterlimit="10" stroke-width="2"/>
    </g>
  </g>
</svg>
