<svg id="_60-superman" data-name="60-superman" xmlns="http://www.w3.org/2000/svg" width="61.711" height="61.711" viewBox="0 0 61.711 61.711">
  <path id="Trazado_900961" data-name="Trazado 900961" d="M14.778,62.139H9V40.951l6.039-1.271L16.7,43.841H45.6l1.666-4.161L53.3,40.951V62.139H37.892l4.815-9.631-4.815-4.815H24.409l-4.815,4.815,4.815,9.631Z" transform="translate(-0.295 -1.428)" fill="#4a98f7"/>
  <path id="Trazado_900962" data-name="Trazado 900962" d="M47.263,39.68,45.6,43.841H16.7L15.039,39.68,9,40.951v2.889l6.039-1.271L16.7,46.73H45.6l1.666-4.161L53.3,43.841V40.951Z" transform="translate(-0.295 -1.428)" fill="#2864f0"/>
  <path id="Trazado_900963" data-name="Trazado 900963" d="M36.372,50.889H26.742l-2.889,2.889,4.815,8.668H24.815L20,52.815,24.815,48H38.3l4.815,4.815L38.3,62.446H34.446l4.815-8.668Z" transform="translate(-0.701 -1.735)" fill="#e9edf5"/>
  <path id="Trazado_900964" data-name="Trazado 900964" d="M39.409,53.889l-4.815,8.668H28.815L24,53.889,26.889,51H36.52Z" transform="translate(-0.849 -1.846)" fill="#f92814"/>
  <path id="Trazado_900965" data-name="Trazado 900965" d="M26.889,53.889H36.52l1.858,1.858,1.031-1.858L36.52,51H26.889L24,53.889l1.031,1.858Z" transform="translate(-0.849 -1.846)" fill="#ff7045"/>
  <path id="Trazado_900966" data-name="Trazado 900966" d="M55,41l7.7,21.188H55Z" transform="translate(-1.994 -1.477)" fill="#f92814"/>
  <path id="Trazado_900967" data-name="Trazado 900967" d="M8.7,41V62.188H1Z" transform="translate(0 -1.477)" fill="#f92814"/>
  <path id="Trazado_900968" data-name="Trazado 900968" d="M21.79,38.25l.925,5.538H16.936L15.27,39.627Z" transform="translate(-0.527 -1.375)" fill="#f92814"/>
  <path id="Trazado_900969" data-name="Trazado 900969" d="M48.445,39.627l-1.666,4.161H41l.925-5.538Z" transform="translate(-1.477 -1.375)" fill="#f92814"/>
  <path id="Trazado_900970" data-name="Trazado 900970" d="M23.852,15.446a3.876,3.876,0,0,0-2.726,1.127l-.164-.164L20,15.446V12.557a11.557,11.557,0,1,1,23.114,0v2.889l-.963.963-.164.164a3.876,3.876,0,0,0-2.726-1.127V12.557s-4.815,1.926-7.7,1.926-7.7-1.926-7.7-1.926Z" transform="translate(-0.701)" fill="#333940"/>
  <path id="Trazado_900971" data-name="Trazado 900971" d="M31.557,1A11.557,11.557,0,0,0,20,12.557v2.889a11.557,11.557,0,1,1,23.114,0V12.557A11.557,11.557,0,0,0,31.557,1Z" transform="translate(-0.701)" fill="#707789"/>
  <path id="Trazado_900972" data-name="Trazado 900972" d="M23.852,16v7.7a3.852,3.852,0,1,1,0-7.7Z" transform="translate(-0.701 -0.554)" fill="#eb975d"/>
  <path id="Trazado_900973" data-name="Trazado 900973" d="M42.726,17.127A3.852,3.852,0,0,1,40,23.7V16A3.876,3.876,0,0,1,42.726,17.127Z" transform="translate(-1.44 -0.554)" fill="#eb975d"/>
  <path id="Trazado_900974" data-name="Trazado 900974" d="M31.7,14.926c2.889,0,7.7-1.926,7.7-1.926V24.557a7.7,7.7,0,0,1-11.528,6.684,7.549,7.549,0,0,1-1.628-1.233A7.718,7.718,0,0,1,24,24.557V13s4.815,1.926,7.7,1.926Z" transform="translate(-0.849 -0.443)" fill="#ffdaaa"/>
  <path id="Trazado_900975" data-name="Trazado 900975" d="M31.7,14.926C28.815,14.926,24,13,24,13v2.889s4.815,1.926,7.7,1.926,7.7-1.926,7.7-1.926V13S34.594,14.926,31.7,14.926Z" transform="translate(-0.849 -0.443)" fill="#ffb680"/>
  <path id="Trazado_900976" data-name="Trazado 900976" d="M35.485,36.813l5.74,1.2L40.3,43.555H22.965l-.925-5.538,5.74-1.2V32l.029-.058a7.67,7.67,0,0,0,7.647,0l.029.058Z" transform="translate(-0.777 -1.142)" fill="#ffb680"/>
  <path id="Trazado_900977" data-name="Trazado 900977" d="M36,37v2.889l5.274,1.106L41.74,38.2Z" transform="translate(-1.292 -1.329)" fill="#eb975d"/>
  <path id="Trazado_900978" data-name="Trazado 900978" d="M31.852,35.85a7.66,7.66,0,0,0,3.823-1.021l.029.058V32l-.029-.058a7.67,7.67,0,0,1-7.647,0L28,32v2.889l.029-.058a7.66,7.66,0,0,0,3.823,1.021Z" transform="translate(-0.997 -1.142)" fill="#eb975d"/>
  <path id="Trazado_900979" data-name="Trazado 900979" d="M27.78,39.889V37l-5.74,1.2.466,2.791Z" transform="translate(-0.777 -1.329)" fill="#eb975d"/>
  <g id="Grupo_1112732" data-name="Grupo 1112732" transform="translate(1 1)">
    <path id="Trazado_900980" data-name="Trazado 900980" d="M31.7,14.926c2.889,0,7.7-1.926,7.7-1.926V24.557a7.7,7.7,0,0,1-11.528,6.684,7.549,7.549,0,0,1-1.628-1.233A7.718,7.718,0,0,1,24,24.557V13s4.815,1.926,7.7,1.926Z" transform="translate(-1.849 -1.443)" fill="none" stroke="#000" stroke-linejoin="round" stroke-width="2"/>
    <path id="Trazado_900981" data-name="Trazado 900981" d="M20.963,16.409,20,15.446V12.557a11.557,11.557,0,1,1,23.114,0v2.889l-.963.963" transform="translate(-1.701 -1)" fill="none" stroke="#000" stroke-linejoin="round" stroke-width="2"/>
    <path id="Trazado_900982" data-name="Trazado 900982" d="M40,23.7A3.852,3.852,0,0,0,40,16" transform="translate(-2.44 -1.554)" fill="none" stroke="#000" stroke-linejoin="round" stroke-width="2"/>
    <path id="Trazado_900983" data-name="Trazado 900983" d="M23.852,16a3.852,3.852,0,1,0,0,7.7" transform="translate(-1.701 -1.554)" fill="none" stroke="#000" stroke-linejoin="round" stroke-width="2"/>
    <path id="Trazado_900984" data-name="Trazado 900984" d="M27.3,32v4.815l-5.74,1.2L15.039,39.4,9,40.668V61.855H53.3V40.668L47.263,39.4l-6.52-1.377L35,36.815V32" transform="translate(-1.295 -2.145)" fill="none" stroke="#000" stroke-linejoin="round" stroke-width="2"/>
    <path id="Trazado_900985" data-name="Trazado 900985" d="M15,62.52V50" transform="translate(-1.517 -2.809)" fill="none" stroke="#000" stroke-linejoin="round" stroke-width="2"/>
    <path id="Trazado_900986" data-name="Trazado 900986" d="M49,62.52V50" transform="translate(-2.772 -2.809)" fill="none" stroke="#000" stroke-linejoin="round" stroke-width="2"/>
    <path id="Trazado_900987" data-name="Trazado 900987" d="M32,15a1.926,1.926,0,0,1,0,3.852" transform="translate(-2.145 -1.517)" fill="none" stroke="#000" stroke-linejoin="round" stroke-width="2"/>
    <path id="Trazado_900988" data-name="Trazado 900988" d="M55,41l7.7,21.188H55" transform="translate(-2.994 -2.477)" fill="none" stroke="#000" stroke-linejoin="round" stroke-width="2"/>
    <path id="Trazado_900989" data-name="Trazado 900989" d="M8.7,41,1,62.188H8.7" transform="translate(-1 -2.477)" fill="none" stroke="#000" stroke-linejoin="round" stroke-width="2"/>
    <path id="Trazado_900990" data-name="Trazado 900990" d="M38.3,62.446l4.815-9.631L38.3,48H24.815L20,52.815l4.815,9.631" transform="translate(-1.701 -2.735)" fill="none" stroke="#000" stroke-linejoin="round" stroke-width="2"/>
    <path id="Trazado_900991" data-name="Trazado 900991" d="M28.815,62.557,24,53.889,26.889,51H36.52l2.889,2.889-4.815,8.668" transform="translate(-1.849 -2.846)" fill="none" stroke="#000" stroke-linejoin="round" stroke-width="2"/>
    <path id="Trazado_900992" data-name="Trazado 900992" d="M15,39l.26.655,1.666,4.161H45.819l1.666-4.161.26-.655" transform="translate(-1.517 -2.403)" fill="none" stroke="#000" stroke-linejoin="round" stroke-width="2"/>
    <path id="Trazado_900993" data-name="Trazado 900993" d="M22.963,43.778l-.925-5.538L22,38" transform="translate(-1.775 -2.366)" fill="none" stroke="#000" stroke-linejoin="round" stroke-width="2"/>
    <path id="Trazado_900994" data-name="Trazado 900994" d="M41,43.778l.925-5.538L41.963,38" transform="translate(-2.477 -2.366)" fill="none" stroke="#000" stroke-linejoin="round" stroke-width="2"/>
    <path id="Trazado_900995" data-name="Trazado 900995" d="M28,37l2.889,2.889" transform="translate(-1.997 -2.329)" fill="none" stroke="#000" stroke-linejoin="round" stroke-width="2"/>
    <path id="Trazado_900996" data-name="Trazado 900996" d="M35.889,37,33,39.889" transform="translate(-2.181 -2.329)" fill="none" stroke="#000" stroke-linejoin="round" stroke-width="2"/>
  </g>
</svg>
