<svg xmlns="http://www.w3.org/2000/svg" width="70.704" height="62.834" viewBox="0 0 70.704 62.834">
  <g id="Grupo_1112750" data-name="Grupo 1112750" transform="translate(-6.5 -34.683)">
    <g id="Grupo_1112748" data-name="Grupo 1112748" transform="translate(7.5 35.709)">
      <g id="Grupo_1112738" data-name="Grupo 1112738" transform="translate(33.157 2.37)">
        <g id="Grupo_1112734" data-name="Grupo 1112734" transform="translate(13.084 25.931)">
          <path id="Trazado_900997" data-name="Trazado 900997" d="M342.528,258.868l8.661-5.475V240.758h-8.661Z" transform="translate(-342.528 -240.758)" fill="#fdb0a0"/>
          <g id="Grupo_1112733" data-name="Grupo 1112733">
            <path id="Trazado_900998" data-name="Trazado 900998" d="M342.528,240.758v15.566a7.582,7.582,0,0,0,6.3-7.47v-1.529h2.117c.083,0,.166-.005.247-.012v-6.555Z" transform="translate(-342.528 -240.758)" fill="#f69583"/>
          </g>
          <path id="Trazado_900999" data-name="Trazado 900999" d="M342.528,258.868l8.661-5.475V240.758h-8.661Z" transform="translate(-342.528 -240.758)" fill="none" stroke="#000" stroke-linecap="round" stroke-linejoin="round" stroke-miterlimit="10" stroke-width="2"/>
        </g>
        <path id="Trazado_901000" data-name="Trazado 901000" d="M250.946,71.311s-5.211-2.042-2.362-9.718c3.052-8.226,23.7-14.846,31.725.634C289.258,79.493,275.1,89.947,266.928,89a1.041,1.041,0,0,1-.919-1.035V81.517C266.731,80.484,250.946,71.311,250.946,71.311Z" transform="translate(-247.732 -52.883)" fill="#a34f41"/>
        <path id="Trazado_901001" data-name="Trazado 901001" d="M355.986,89.009a1.034,1.034,0,0,1-.838-.634c7.641-2.56,15.649-12.1,8.37-26.144A16.423,16.423,0,0,0,351.05,53.1c6.7-.953,14.184,1.156,18.317,9.129C378.315,79.5,364.161,89.952,355.986,89.009Z" transform="translate(-336.79 -52.888)" fill="#873f30"/>
        <path id="Trazado_901002" data-name="Trazado 901002" d="M250.946,71.311s-5.211-2.042-2.362-9.718c3.052-8.226,23.7-14.846,31.725.634C289.258,79.493,275.1,89.947,266.928,89a1.041,1.041,0,0,1-.919-1.035V81.517C266.731,80.484,250.946,71.311,250.946,71.311Z" transform="translate(-247.732 -52.883)" fill="none" stroke="#000" stroke-linecap="round" stroke-linejoin="round" stroke-miterlimit="10" stroke-width="2"/>
        <g id="Grupo_1112737" data-name="Grupo 1112737" transform="translate(3.214 14.822)">
          <g id="Grupo_1112735" data-name="Grupo 1112735">
            <path id="Trazado_901003" data-name="Trazado 901003" d="M288.2,165.852h-.246a2.7,2.7,0,0,0-2.662,2.234.539.539,0,0,1-.552.456c-6.062-.3-11.176-5.872-13-8.121a.4.4,0,0,0-.717.256v17.664a4.852,4.852,0,0,0,4.852,4.852H278.5a7.581,7.581,0,0,0,7.581-7.581v-1.529H288.2a2.7,2.7,0,0,0,2.7-2.7v-2.825A2.7,2.7,0,0,0,288.2,165.852Z" transform="translate(-271.016 -160.272)" fill="#ffcec0"/>
            <path id="Trazado_901004" data-name="Trazado 901004" d="M288.2,165.852h-.246a2.7,2.7,0,0,0-2.662,2.234.539.539,0,0,1-.552.456c-6.062-.3-11.176-5.872-13-8.121a.4.4,0,0,0-.717.256v17.664a4.852,4.852,0,0,0,4.852,4.852H278.5a7.581,7.581,0,0,0,7.581-7.581v-1.529H288.2a2.7,2.7,0,0,0,2.7-2.7v-2.825A2.7,2.7,0,0,0,288.2,165.852Z" transform="translate(-271.016 -160.272)" fill="none" stroke="#000" stroke-linecap="round" stroke-linejoin="round" stroke-miterlimit="10" stroke-width="2"/>
            <path id="Trazado_901005" data-name="Trazado 901005" d="M303.431,232.856s-1.818,1.542-3.557.263" transform="translate(-295.891 -222.838)" fill="none" stroke="#000" stroke-linecap="round" stroke-linejoin="round" stroke-miterlimit="10" stroke-width="2"/>
          </g>
          <g id="Grupo_1112736" data-name="Grupo 1112736" transform="translate(2.753 23.744)">
            <path id="Trazado_901006" data-name="Trazado 901006" d="M298.078,337.779s-7.117,8.068-7.117,14.4h17.73c2.142-15.281-1.952-19.872-1.952-19.872Z" transform="translate(-290.961 -332.304)" fill="#fb3a82"/>
            <path id="Trazado_901007" data-name="Trazado 901007" d="M392.66,352.18h-5.848c0-10.125-2.951-15.311-5.221-17.805l3.269-2.066S392.66,335.719,392.66,352.18Z" transform="translate(-369.082 -332.308)" fill="#fb1466"/>
            <path id="Trazado_901008" data-name="Trazado 901008" d="M345.683,352.176c0-16.462-7.8-19.872-7.8-19.872l-8.661,5.475s-.937,1.062-2.131,2.718" transform="translate(-322.105 -332.304)" fill="none" stroke="#000" stroke-linecap="round" stroke-linejoin="round" stroke-miterlimit="10" stroke-width="2"/>
            <path id="Trazado_901009" data-name="Trazado 901009" d="M293.232,422.868a16.559,16.559,0,0,0-2.271,7.373" transform="translate(-290.961 -410.368)" fill="none" stroke="#000" stroke-linecap="round" stroke-linejoin="round" stroke-miterlimit="10" stroke-width="2"/>
            <path id="Trazado_901010" data-name="Trazado 901010" d="M360.232,418.783s-6.057,3.036-6.057,7.936" transform="translate(-345.45 -406.847)" fill="none" stroke="#000" stroke-linecap="round" stroke-linejoin="round" stroke-miterlimit="10" stroke-width="2"/>
          </g>
        </g>
      </g>
      <g id="Grupo_1112745" data-name="Grupo 1112745" transform="translate(0 0)">
        <path id="Trazado_901011" data-name="Trazado 901011" d="M76,247.625l-9.1-5.605V228.74H76Z" transform="translate(-58.697 -202.097)" fill="#fdb0a0"/>
        <g id="Grupo_1112739" data-name="Grupo 1112739" transform="translate(8.198 26.643)">
          <path id="Trazado_901012" data-name="Trazado 901012" d="M66.895,228.74v6.874a2.824,2.824,0,0,0,1.42.383H70.54V237.6A7.969,7.969,0,0,0,76,245.166V228.74Z" transform="translate(-66.895 -228.74)" fill="#f69583"/>
        </g>
        <path id="Trazado_901013" data-name="Trazado 901013" d="M76,247.625l-9.1-5.605V228.74H76Z" transform="translate(-58.697 -202.097)" fill="none" stroke="#000" stroke-linecap="round" stroke-linejoin="round" stroke-miterlimit="10" stroke-width="2"/>
        <circle id="Elipse_11507" data-name="Elipse 11507" cx="12.53" cy="12.53" r="12.53" transform="translate(0 3.848)" fill="#756f6f"/>
        <path id="Trazado_901014" data-name="Trazado 901014" d="M56.658,151c0-.181-.006-.361-.014-.54h-7.6a2.576,2.576,0,0,0-2.471,1.814c-1.059,3.495-5.177,3.1-5.177,3.1a2.841,2.841,0,0,0-2.841-2.841H38.3a2.841,2.841,0,0,0-2.841,2.841v2.97a2.841,2.841,0,0,0,2.841,2.841h2.225v1.607c0,.07,0,.14.005.21a12.532,12.532,0,0,0,16.132-12Z" transform="translate(-31.597 -134.617)" fill="#5b5555"/>
        <g id="Grupo_1112740" data-name="Grupo 1112740" transform="translate(6.777 18.756)">
          <path id="Trazado_901015" data-name="Trazado 901015" d="M79.527,171.6l-2.011,15.226a5.84,5.84,0,0,1-5.79,5.075h-2.09a7.968,7.968,0,0,1-7.968-7.968V182.33H59.445a2.841,2.841,0,0,1-2.841-2.841v-2.97a2.841,2.841,0,0,1,2.841-2.841H59.7a2.84,2.84,0,0,1,2.841,2.84h0s4.118.392,5.177-3.1a2.576,2.576,0,0,1,2.471-1.814Z" transform="translate(-56.604 -171.603)" fill="#ffcec0"/>
        </g>
        <g id="Grupo_1112741" data-name="Grupo 1112741" transform="translate(17.958 18.757)">
          <path id="Trazado_901016" data-name="Trazado 901016" d="M149.352,171.607l-2.01,15.225a5.84,5.84,0,0,1-5.79,5.075h-2.09a7.957,7.957,0,0,1-1.852-.217,5.84,5.84,0,0,0,4.211-4.858l2.01-15.225Z" transform="translate(-137.61 -171.607)" fill="#fdb0a0"/>
        </g>
        <g id="Grupo_1112742" data-name="Grupo 1112742" transform="translate(6.777 18.756)">
          <path id="Trazado_901017" data-name="Trazado 901017" d="M79.527,171.6l-2.011,15.226a5.84,5.84,0,0,1-5.79,5.075h-2.09a7.968,7.968,0,0,1-7.968-7.968V182.33H59.445a2.841,2.841,0,0,1-2.841-2.841v-2.97a2.841,2.841,0,0,1,2.841-2.841H59.7a2.84,2.84,0,0,1,2.841,2.84h0s4.118.392,5.177-3.1a2.576,2.576,0,0,1,2.471-1.814Z" transform="translate(-56.604 -171.603)" fill="none" stroke="#000" stroke-linecap="round" stroke-linejoin="round" stroke-miterlimit="10" stroke-width="2"/>
        </g>
        <path id="Trazado_901018" data-name="Trazado 901018" d="M127,56.489a1.753,1.753,0,0,1-2-1.8c.139-3.917-.413-12.561-7.675-14.847,0,0,4.432-7.26,12.428-2.534a2.611,2.611,0,0,0,3.778,3.046C139.382,46.825,135.5,55.262,127,56.489Z" transform="translate(-102.171 -35.709)" fill="#756f6f"/>
        <path id="Trazado_901019" data-name="Trazado 901019" d="M154.173,56.491a1.752,1.752,0,0,1-1.923-1.215c6.266-3.165,7.831-11.166.645-16.725a14.679,14.679,0,0,0-4.046-2.3c2.389-.943,5.721-.933,9.894,2.3C167.256,45.137,163.49,55.148,154.173,56.491Z" transform="translate(-129.341 -35.711)" fill="#5b5555"/>
        <g id="Grupo_1112744" data-name="Grupo 1112744" transform="translate(0 0.001)">
          <g id="Grupo_1112743" data-name="Grupo 1112743">
            <path id="Trazado_901020" data-name="Trazado 901020" d="M170.981,78.708a25.731,25.731,0,0,1,.27,4.814,1.753,1.753,0,0,0,2,1.8c8.511-1.227,12.388-9.688,6.506-16.163" transform="translate(-148.417 -64.543)" fill="none" stroke="#000" stroke-linecap="round" stroke-linejoin="round" stroke-miterlimit="10" stroke-width="2"/>
            <path id="Trazado_901021" data-name="Trazado 901021" d="M34.868,37.186a8.721,8.721,0,0,0-12.209,2.661l-.1-.03A12.533,12.533,0,0,0,14.441,63.31" transform="translate(-7.5 -35.714)" fill="none" stroke="#000" stroke-linecap="round" stroke-linejoin="round" stroke-miterlimit="10" stroke-width="2"/>
          </g>
        </g>
        <path id="Trazado_901022" data-name="Trazado 901022" d="M159.077,213.883s1.91,1.62,3.738.277" transform="translate(-138.156 -189.291)" fill="none" stroke="#000" stroke-linecap="round" stroke-linejoin="round" stroke-miterlimit="10" stroke-width="2"/>
      </g>
      <g id="Grupo_1112746" data-name="Grupo 1112746" transform="translate(0 39.923)">
        <path id="Trazado_901023" data-name="Trazado 901023" d="M24.8,330.562s2.3,8.8.128,15.281H7.5c0-17.3,8.2-20.887,8.2-20.887Z" transform="translate(-7.5 -324.957)" fill="#21c1f8"/>
        <path id="Trazado_901024" data-name="Trazado 901024" d="M66.359,345.844H60.838a18.048,18.048,0,0,0-.667-4.6,23.927,23.927,0,0,0-10.622-14.152l-.389-.24a8.751,8.751,0,0,1,2.447-1.892l9.1,5.605S66.359,338.792,66.359,345.844Z" transform="translate(-43.41 -324.957)" fill="#1faaee"/>
        <path id="Trazado_901025" data-name="Trazado 901025" d="M7.5,345.844c0-17.3,8.2-20.887,8.2-20.887l9.1,5.605s5.648,8.231,5.648,15.281" transform="translate(-7.5 -324.957)" fill="none" stroke="#000" stroke-linecap="round" stroke-linejoin="round" stroke-miterlimit="10" stroke-width="2"/>
      </g>
      <g id="Grupo_1112747" data-name="Grupo 1112747" transform="translate(24.022 30.817)">
        <path id="Trazado_901026" data-name="Trazado 901026" d="M191.555,260.4l-.874.874-.874-.874a4.839,4.839,0,0,0-6.844,0h0a4.839,4.839,0,0,0,0,6.844l5.505,5.505A14.106,14.106,0,0,1,190,274.56h0a.84.84,0,0,0,1.37,0h0a14.094,14.094,0,0,1,1.528-1.809l5.505-5.505a4.839,4.839,0,0,0,0-6.844h0A4.839,4.839,0,0,0,191.555,260.4Z" transform="translate(-181.546 -258.985)" fill="#fb3a82"/>
        <path id="Trazado_901027" data-name="Trazado 901027" d="M240.724,267.246l-5.505,5.505a14.1,14.1,0,0,0-1.528,1.81.84.84,0,0,1-1.37,0,14.084,14.084,0,0,0-1.528-1.81l-.145-.145,5.36-5.36a4.844,4.844,0,0,0-1.065-7.65,4.84,4.84,0,0,1,5.78,7.65Z" transform="translate(-223.871 -258.986)" fill="#fb1466"/>
        <path id="Trazado_901028" data-name="Trazado 901028" d="M191.555,260.4l-.874.874-.874-.874a4.839,4.839,0,0,0-6.844,0h0a4.839,4.839,0,0,0,0,6.844l5.505,5.505A14.106,14.106,0,0,1,190,274.56h0a.84.84,0,0,0,1.37,0h0a14.094,14.094,0,0,1,1.528-1.809l5.505-5.505a4.839,4.839,0,0,0,0-6.844h0A4.839,4.839,0,0,0,191.555,260.4Z" transform="translate(-181.546 -258.985)" fill="none" stroke="#000" stroke-linecap="round" stroke-linejoin="round" stroke-miterlimit="10" stroke-width="2"/>
      </g>
    </g>
    <g id="Grupo_1112749" data-name="Grupo 1112749" transform="translate(18.375 88.582)">
      <path id="Trazado_901029" data-name="Trazado 901029" d="M86.295,418.783s6.057,3.036,6.057,7.936" transform="translate(-86.295 -418.783)" fill="none" stroke="#000" stroke-linecap="round" stroke-linejoin="round" stroke-miterlimit="10" stroke-width="2"/>
    </g>
  </g>
</svg>
