<svg xmlns="http://www.w3.org/2000/svg" width="63.51" height="63.501" viewBox="0 0 63.51 63.501">
  <g id="Grupo_1112758" data-name="Grupo 1112758" transform="translate(-6.5 -6.5)">
    <g id="Grupo_1112751" data-name="Grupo 1112751" transform="translate(25.742 7.5)">
      <circle id="Elipse_11508" data-name="Elipse 11508" cx="12.495" cy="12.495" r="12.495" transform="translate(0 0)" fill="#ffe177"/>
      <path id="Trazado_901030" data-name="Trazado 901030" d="M183.828,19.432a12.5,12.5,0,0,1-16.912,16.912,12.5,12.5,0,1,0,16.912-16.912Z" transform="translate(-165.44 -17.956)" fill="#ffd15b"/>
      <path id="Trazado_901031" data-name="Trazado 901031" d="M210.384,114.482a7.5,7.5,0,0,1-14.994,0Z" transform="translate(-190.392 -101.25)" fill="#fe93d3"/>
    </g>
    <g id="Grupo_1112753" data-name="Grupo 1112753" transform="translate(41.037 29.627)">
      <g id="Grupo_1112752" data-name="Grupo 1112752" transform="translate(0 0)">
        <path id="Trazado_901032" data-name="Trazado 901032" d="M303.395,273.383,299.53,284a8.857,8.857,0,0,0,5.294,11.352h0a8.857,8.857,0,0,0,11.353-5.294l3.865-10.619Z" transform="translate(-296.476 -262.623)" fill="#fed2a4"/>
        <path id="Trazado_901033" data-name="Trazado 901033" d="M342.521,309.7l-3.865,10.619a8.86,8.86,0,0,1-9.1,5.795,8.864,8.864,0,0,0,2.05,1.066h0a8.857,8.857,0,0,0,11.352-5.294l3.865-10.619Z" transform="translate(-323.261 -294.446)" fill="#ffbd86"/>
        <path id="Trazado_901034" data-name="Trazado 901034" d="M311.133,187.12h0a12.064,12.064,0,0,0-15.463,7.21l-2.768,7.606,3.014,1.1,1.045-2.87c2.321,3.445,6.823,1.346,6.823,1.346-.627,1.722-3.093,1.8-3.093,1.8a13.056,13.056,0,0,0,11.573-.988l1.343,3.9-1.045,2.87,3.014,1.1,2.768-7.606A12.064,12.064,0,0,0,311.133,187.12Z" transform="translate(-291.138 -186.389)" fill="#9c9c9c"/>
        <path id="Trazado_901035" data-name="Trazado 901035" d="M424.513,188.212h0a12.118,12.118,0,0,0-2.228-.577,12.066,12.066,0,0,1,5.133,14.473l-1.143,3.14.711,2.065-1.045,2.87,3.014,1.1,2.768-7.606A12.064,12.064,0,0,0,424.513,188.212Z" transform="translate(-404.518 -187.481)" fill="#838383"/>
        <path id="Trazado_901036" data-name="Trazado 901036" d="M445.124,353.1l-1.722-.627,2.089-5.74,1.722.627a3.054,3.054,0,0,1,1.825,3.915h0A3.054,3.054,0,0,1,445.124,353.1Z" transform="translate(-423.023 -326.899)" fill="#f6a96c"/>
        <path id="Trazado_901037" data-name="Trazado 901037" d="M282.744,291.369l1.722.627-2.089,5.74-1.722-.627a3.054,3.054,0,0,1-1.825-3.915h0A3.054,3.054,0,0,1,282.744,291.369Z" transform="translate(-278.644 -278.222)" fill="#f6a96c"/>
      </g>
      <path id="Trazado_901038" data-name="Trazado 901038" d="M341.282,379.008a4.5,4.5,0,0,1-8.454-3.077Z" transform="translate(-325.888 -352.487)" fill="#fe93d3"/>
    </g>
    <g id="Grupo_1112755" data-name="Grupo 1112755" transform="translate(7.5 35.705)">
      <g id="Grupo_1112754" data-name="Grupo 1112754" transform="translate(0)">
        <path id="Trazado_901039" data-name="Trazado 901039" d="M30.594,294.939l5.38,14.781a8.857,8.857,0,0,0,11.352,5.294h0a8.857,8.857,0,0,0,5.294-11.352L47.24,288.88Z" transform="translate(-27.738 -282.281)" fill="#fed2a4"/>
        <path id="Trazado_901040" data-name="Trazado 901040" d="M133.6,299.331l4.98,13.682a8.86,8.86,0,0,1-3.244,10.286,8.866,8.866,0,0,0,2.255-.5h0a8.857,8.857,0,0,0,5.294-11.352l-4.98-13.682Z" transform="translate(-118.006 -290.067)" fill="#ffbd86"/>
        <path id="Trazado_901041" data-name="Trazado 901041" d="M15.441,236.263h0a12.064,12.064,0,0,0-7.21,15.463L11,259.331l3.014-1.1-1.045-2.87,3.72-3.881.442,2.691,6.7-7.369,5.785,2.5,1.045,2.87,3.014-1.1L30.9,243.473A12.064,12.064,0,0,0,15.441,236.263Z" transform="translate(-7.5 -235.532)" fill="#9c9c9c"/>
        <path id="Trazado_901042" data-name="Trazado 901042" d="M56.986,236.263h0a12.124,12.124,0,0,0-2.077.99,12.066,12.066,0,0,1,13.235,7.787l1.279,3.515,1.736.75,1.045,2.87,3.014-1.1-2.768-7.606A12.064,12.064,0,0,0,56.986,236.263Z" transform="translate(-49.045 -235.532)" fill="#838383"/>
        <path id="Trazado_901043" data-name="Trazado 901043" d="M190.1,346.252l-1.722.627-2.089-5.74,1.722-.627a3.054,3.054,0,0,1,3.915,1.825h0A3.054,3.054,0,0,1,190.1,346.252Z" transform="translate(-164.175 -327.365)" fill="#f6a96c"/>
        <path id="Trazado_901044" data-name="Trazado 901044" d="M23.542,396.5l1.722-.627,2.089,5.74-1.722.627a3.054,3.054,0,0,1-3.915-1.825h0A3.054,3.054,0,0,1,23.542,396.5Z" transform="translate(-19.796 -376.041)" fill="#f6a96c"/>
      </g>
      <path id="Trazado_901045" data-name="Trazado 901045" d="M108.736,428.209a4.5,4.5,0,0,0,8.454-3.077Z" transform="translate(-96.214 -401.681)" fill="#fe93d3"/>
    </g>
    <path id="Trazado_901046" data-name="Trazado 901046" d="M178.7,14.5a12.511,12.511,0,1,1-2.542-3.49" transform="translate(-129.238 0)" fill="none" stroke="#000" stroke-linecap="round" stroke-linejoin="round" stroke-miterlimit="10" stroke-width="2"/>
    <path id="Trazado_901047" data-name="Trazado 901047" d="M210.384,114.482a7.5,7.5,0,0,1-14.994,0Z" transform="translate(-164.65 -93.75)" fill="none" stroke="#000" stroke-linecap="round" stroke-linejoin="round" stroke-miterlimit="10" stroke-width="2"/>
    <line id="Línea_587" data-name="Línea 587" y2="2.082" transform="translate(34.072 14.372)" fill="none" stroke="#000" stroke-linecap="round" stroke-linejoin="round" stroke-miterlimit="10" stroke-width="2"/>
    <line id="Línea_588" data-name="Línea 588" y2="2.082" transform="translate(42.401 14.372)" fill="none" stroke="#000" stroke-linecap="round" stroke-linejoin="round" stroke-miterlimit="10" stroke-width="2"/>
    <path id="Trazado_901048" data-name="Trazado 901048" d="M425.1,397.728a8.806,8.806,0,0,0,1.584-2.722l.679-1.865" transform="translate(-365.948 -337.941)" fill="none" stroke="#000" stroke-linecap="round" stroke-linejoin="round" stroke-miterlimit="10" stroke-width="2"/>
    <path id="Trazado_901049" data-name="Trazado 901049" d="M300.207,344.15l-.679,1.866a8.852,8.852,0,0,0,11.556,11.274" transform="translate(-255.437 -295.01)" fill="none" stroke="#000" stroke-linecap="round" stroke-linejoin="round" stroke-miterlimit="10" stroke-width="2"/>
    <path id="Trazado_901050" data-name="Trazado 901050" d="M323.176,207.606,325,202.583a12.064,12.064,0,0,0-7.21-15.463h0a12.064,12.064,0,0,0-15.463,7.21l-1.828,5.023" transform="translate(-256.762 -156.763)" fill="none" stroke="#000" stroke-linecap="round" stroke-linejoin="round" stroke-miterlimit="10" stroke-width="2"/>
    <path id="Trazado_901051" data-name="Trazado 901051" d="M325.711,297.747c2.321,3.445,6.823,1.346,6.823,1.346-.627,1.722-3.093,1.8-3.093,1.8a13.056,13.056,0,0,0,11.573-.988l1.343,3.9" transform="translate(-278.852 -254.347)" fill="none" stroke="#000" stroke-linecap="round" stroke-linejoin="round" stroke-miterlimit="10" stroke-width="2"/>
    <path id="Trazado_901052" data-name="Trazado 901052" d="M445.124,353.1l-1.722-.627,2.089-5.74,1.722.627a3.054,3.054,0,0,1,1.825,3.915h0A3.054,3.054,0,0,1,445.124,353.1Z" transform="translate(-381.986 -297.272)" fill="none" stroke="#000" stroke-linecap="round" stroke-linejoin="round" stroke-miterlimit="10" stroke-width="2"/>
    <path id="Trazado_901053" data-name="Trazado 901053" d="M282.744,291.369l1.722.627-2.089,5.74-1.722-.627a3.054,3.054,0,0,1-1.825-3.915h0A3.054,3.054,0,0,1,282.744,291.369Z" transform="translate(-237.606 -248.595)" fill="none" stroke="#000" stroke-linecap="round" stroke-linejoin="round" stroke-miterlimit="10" stroke-width="2"/>
    <path id="Trazado_901054" data-name="Trazado 901054" d="M341.282,379.008a4.5,4.5,0,0,1-8.454-3.077Z" transform="translate(-284.85 -322.86)" fill="none" stroke="#000" stroke-linecap="round" stroke-linejoin="round" stroke-miterlimit="10" stroke-width="2"/>
    <path id="Trazado_901055" data-name="Trazado 901055" d="M68.6,399.357l.679,1.865a8.857,8.857,0,0,0,11.352,5.294h0a8.857,8.857,0,0,0,5.294-11.352l-.679-1.866" transform="translate(-53.542 -338.079)" fill="none" stroke="#000" stroke-linecap="round" stroke-linejoin="round" stroke-miterlimit="10" stroke-width="2"/>
    <path id="Trazado_901056" data-name="Trazado 901056" d="M8.712,290.53a12.026,12.026,0,0,0-.481,9.39l1.828,5.023" transform="translate(0 -248.022)" fill="none" stroke="#000" stroke-linecap="round" stroke-linejoin="round" stroke-miterlimit="10" stroke-width="2"/>
    <path id="Trazado_901057" data-name="Trazado 901057" d="M37.89,238.849a12.071,12.071,0,0,1,19.645,4.626l1.828,5.022" transform="translate(-26.631 -199.828)" fill="none" stroke="#000" stroke-linecap="round" stroke-linejoin="round" stroke-miterlimit="10" stroke-width="2"/>
    <path id="Trazado_901058" data-name="Trazado 901058" d="M190.1,346.252l-1.722.627-2.089-5.74,1.722-.627a3.054,3.054,0,0,1,3.915,1.825h0A3.054,3.054,0,0,1,190.1,346.252Z" transform="translate(-156.675 -291.66)" fill="none" stroke="#000" stroke-linecap="round" stroke-linejoin="round" stroke-miterlimit="10" stroke-width="2"/>
    <path id="Trazado_901059" data-name="Trazado 901059" d="M23.542,396.5l1.722-.627,2.089,5.74-1.722.627a3.054,3.054,0,0,1-3.915-1.825h0A3.054,3.054,0,0,1,23.542,396.5Z" transform="translate(-12.296 -340.336)" fill="none" stroke="#000" stroke-linecap="round" stroke-linejoin="round" stroke-miterlimit="10" stroke-width="2"/>
    <path id="Trazado_901060" data-name="Trazado 901060" d="M51.708,335.233l3.72-3.881.442,2.691,6.7-7.369,5.785,2.5" transform="translate(-38.74 -279.696)" fill="none" stroke="#000" stroke-linecap="round" stroke-linejoin="round" stroke-miterlimit="10" stroke-width="2"/>
    <path id="Trazado_901061" data-name="Trazado 901061" d="M108.736,428.209a4.5,4.5,0,0,0,8.454-3.077Z" transform="translate(-88.714 -365.976)" fill="none" stroke="#000" stroke-linecap="round" stroke-linejoin="round" stroke-miterlimit="10" stroke-width="2"/>
    <g id="Grupo_1112756" data-name="Grupo 1112756" transform="translate(56.357 17.617)">
      <line id="Línea_589" data-name="Línea 589" y1="1.767" x2="1.767" transform="translate(3.269 2.6)" fill="none" stroke="#000" stroke-linecap="round" stroke-linejoin="round" stroke-miterlimit="10" stroke-width="2"/>
      <line id="Línea_590" data-name="Línea 590" x2="2.499" transform="translate(5.137 7.636)" fill="none" stroke="#000" stroke-linecap="round" stroke-linejoin="round" stroke-miterlimit="10" stroke-width="2"/>
      <line id="Línea_591" data-name="Línea 591" y1="2.499" transform="translate(0 0)" fill="none" stroke="#000" stroke-linecap="round" stroke-linejoin="round" stroke-miterlimit="10" stroke-width="2"/>
    </g>
    <g id="Grupo_1112757" data-name="Grupo 1112757" transform="translate(8.939 29.422)">
      <line id="Línea_592" data-name="Línea 592" x1="0.701" y1="2.399" transform="translate(4.7)" fill="none" stroke="#000" stroke-linecap="round" stroke-linejoin="round" stroke-miterlimit="10" stroke-width="2"/>
      <line id="Línea_593" data-name="Línea 593" x1="2.192" y1="1.201" transform="translate(0 3.168)" fill="none" stroke="#000" stroke-linecap="round" stroke-linejoin="round" stroke-miterlimit="10" stroke-width="2"/>
      <line id="Línea_594" data-name="Línea 594" y1="2.192" x2="1.201" transform="translate(9.165 0.139)" fill="none" stroke="#000" stroke-linecap="round" stroke-linejoin="round" stroke-miterlimit="10" stroke-width="2"/>
    </g>
  </g>
</svg>
